<?xml version="1.0" encoding="utf-8"?>
<!-- Generator: Adobe Illustrator 16.0.4, SVG Export Plug-In . SVG Version: 6.00 Build 0)  -->
<!DOCTYPE svg PUBLIC "-//W3C//DTD SVG 1.1//EN" "http://www.w3.org/Graphics/SVG/1.1/DTD/svg11.dtd">
<svg version="1.1" id="Layer_1" xmlns="http://www.w3.org/2000/svg" xmlns:xlink="http://www.w3.org/1999/xlink" x="0px" y="0px"
	 width="665.6px" height="665.6px" viewBox="0 0 665.6 665.6" enable-background="new 0 0 665.6 665.6" xml:space="preserve">

<g>
	<path d="M563.113,359.775l-65.017-18.046V187.78h65.017V359.775L563.113,359.775z M484.028,280.056l-15.55-2.707l-2.528,1.71
		c-38.454,26.033-64.17,41.524-107.282,32.235c-13.978-3.025-35.519-8.38-35.534-8.396l-0.135,0.529l-127.357,0.468
		c-0.196,0-0.377,0.016-0.56,0.016c-13.251,0-24.28-10.105-25.597-23.13c3.753-2.859,17.563-6.11,26.912-8.304
		c9.652-2.285,20.589-4.872,30.013-8.32c5.915-2.18,12.753-3.692,21.541-4.826l74.653-9.485l-11.92-13.75l-64.654,8.23
		c-9.938,1.27-17.819,3.054-24.839,5.611c-8.562,3.162-18.576,5.521-28.258,7.805c-13.962,3.298-25.217,6.02-31.979,10.741
		c-12.207-0.394-24.232,2.678-34.807,9.122c-0.681,0.424-1.226,0.983-1.876,1.422c-2.496-9.046-3.887-20.059-2.058-27.17
		l120.927-91.02c24.174-8.895,121.548,11.225,183.131,27.336c11.3,0.786,35.172,0.846,57.757,0.695V280.056L484.028,280.056z
		 M251.34,340.385c-12.088,0.015-22.678,0.106-29.772,0.167c1.031-7.189,0.812-14.503-0.649-21.618l31.54-0.12
		C253.638,324.351,254.621,333.684,251.34,340.385L251.34,340.385z M184.066,372.771c-10.967,6.686-23.916,8.698-36.41,5.643
		c-12.495-3.041-23.039-10.756-29.741-21.737c-6.67-10.998-8.684-23.916-5.657-36.412c3.042-12.494,10.771-23.054,21.754-29.74
		c6.398-3.887,13.538-5.975,20.83-6.61c2.828,19.862,19.756,35.125,40.102,35.125c0.304,0,0.591-0.015,0.893-0.015l9.484-0.046
		C210.87,339.31,202.49,361.562,184.066,372.771L184.066,372.771z M494.433,173.711v-0.03c-0.984,0.016-1.997,0.03-2.995,0.03
		h-7.413v0.076c-22.1,0.182-45.155,0.182-55.29-0.468c-16.003-4.238-157.474-40.937-192.297-26.097L109.49,242.51l-0.771,2.012
		c-4.176,10.77-2.528,30.543,3.175,45.352c-6.761,7.625-11.844,16.625-14.326,26.806c-3.991,16.428-1.345,33.415,7.444,47.847
		c11.89,19.561,32.765,30.36,54.14,30.36c11.564,0.005,22.906-3.177,32.78-9.196c11.771-7.171,20.256-17.882,25.248-29.951
		c6.989-0.092,21.527-0.229,38.242-0.229h3.585l2.269-2.783c8.639-10.529,7.987-25.11,6.535-33.976l55.578-0.197
		c6.913,1.695,21.586,5.25,32.084,7.503c9.864,2.148,18.91,3.146,27.442,3.146c32.221,0,56.907-14.294,88.992-35.91l12.116,2.117
		v57.014l93.154,25.854V173.712L494.433,173.711L494.433,173.711z M231.742,511.246c-1.599-3.373-4.997-5.522-8.729-5.522H89.576
		c-3.731-0.001-7.13,2.148-8.729,5.52l-4.266,9.017c-3.041,6.399,1.634,13.782,8.714,13.782h141.999
		c7.08,0,11.754-7.383,8.714-13.78L231.742,511.246L231.742,511.246z"/>
	<path fill="none" d="M0,0h665.6v665.6H0V0z"/>
</g>
</svg>
