<?xml version="1.0" encoding="utf-8"?>
<!-- Generator: Adobe Illustrator 16.0.4, SVG Export Plug-In . SVG Version: 6.00 Build 0)  -->
<!DOCTYPE svg PUBLIC "-//W3C//DTD SVG 1.1//EN" "http://www.w3.org/Graphics/SVG/1.1/DTD/svg11.dtd">
<svg version="1.1" id="Layer_1" xmlns="http://www.w3.org/2000/svg" xmlns:xlink="http://www.w3.org/1999/xlink" x="0px" y="0px"
	 width="665.6px" height="665.6px" viewBox="0 0 665.6 665.6" enable-background="new 0 0 665.6 665.6" xml:space="preserve">
<g>
	<path fill="none" d="M0,0h665.6v665.601H0V0z"/>
	<path d="M256.614,431.114c3.304,0.035,6.5,2.219,7.675,5.512c1.409,3.951-0.639,8.018-4.576,9.072l-70.057,18.723l-3.661,71.727
		c-0.205,4.066-3.761,6.971-7.931,6.361c-4.181-0.551-7.395-4.279-7.187-8.338l3.903-76.629c0.15-2.971,2.127-5.408,5.011-6.178
		l74.817-20.008c0.655-0.172,1.33-0.254,2.006-0.244"/>
	<path fill="none" stroke="#000000" stroke-width="14.3" stroke-linecap="round" stroke-linejoin="round" d="M192.371,461.616
		c38.251,33.352,87.897,54.07,140.832,54.658c110.523,1.23,193.556-85.74,185.462-194.241c-1.127-15.017-3.936-29.86-8.375-44.25"/>
	<path d="M408.987,251.125c-3.305-0.037-6.502-2.22-7.676-5.512c-1.408-3.952,0.639-8.019,4.576-9.073l70.057-18.723l3.662-71.727
		c0.205-4.067,3.76-6.97,7.93-6.361c4.182,0.551,7.395,4.28,7.188,8.338l-3.902,76.63c-0.15,2.97-2.127,5.408-5.012,6.178
		l-74.816,20.007C410.339,251.053,409.663,251.135,408.987,251.125"/>
	<path fill="none" stroke="#000000" stroke-width="14.3" stroke-linecap="round" stroke-linejoin="round" d="M473.231,220.622
		c-38.252-33.352-87.898-54.07-140.833-54.658c-110.523-1.232-193.557,85.74-185.463,194.24c1.127,15.018,3.937,29.86,8.375,44.25"
		/>
</g>
</svg>
