<?xml version="1.0" encoding="utf-8"?>
<!-- Generator: Adobe Illustrator 16.0.4, SVG Export Plug-In . SVG Version: 6.00 Build 0)  -->
<!DOCTYPE svg PUBLIC "-//W3C//DTD SVG 1.1//EN" "http://www.w3.org/Graphics/SVG/1.1/DTD/svg11.dtd">
<svg version="1.1" id="Layer_1" xmlns="http://www.w3.org/2000/svg" xmlns:xlink="http://www.w3.org/1999/xlink" x="0px" y="0px"
	 width="665.6px" height="665.6px" viewBox="0 0 665.6 665.6" enable-background="new 0 0 665.6 665.6" xml:space="preserve">
<path fill="none" d="M81.961,119.865h582v402h-582V119.865z"/>
<g>
	<path fill="none" d="M-122.339-174.436h990.601v990.603h-990.6L-122.339-174.436z"/>
	<path d="M327.956,420.792c-64.142,0-103.384-12.697-107.098-20.149v-23.325c27.129,12.338,74.723,16.234,107.097,16.234
		c9.501,0,72.788-0.653,106.309-16.55l0.113,24.047C430.527,408.14,391.646,420.792,327.956,420.792L327.956,420.792z
		 M327.956,231.474c61.349,0,99.781,11.618,106.466,18.912c-6.686,7.273-45.117,18.912-106.467,18.912
		c-64.254,0-103.383-12.787-107.232-17.899C224.573,244.24,263.701,231.475,327.956,231.474L327.956,231.474z M434.377,302.056
		c-3.85,7.068-42.73,19.745-106.422,19.745c-64.142,0-103.383-12.72-107.097-20.149v-27.535
		c33.725,15.444,97.529,16.097,107.097,16.097c9.501,0,72.381-0.652,106.288-15.761L434.377,302.056L434.377,302.056z
		 M434.377,352.868c-3.85,7.093-42.73,19.746-106.422,19.746c-64.142,0-103.383-12.699-107.097-20.129v-26.002
		c27.128,12.336,74.723,16.231,107.097,16.231c9.501,0,72.764-0.653,106.309-16.524L434.377,352.868L434.377,352.868z
		 M455.922,250.386c0-38.723-114.862-39.848-127.967-39.848c-13.103,0-127.967,1.125-127.967,39.848c0,0.225,0.112,0.406,0.134,0.63
		c-0.044,0.317-0.202,0.61-0.202,0.924v150.144c0,31.295,80.486,39.647,128.035,39.647c13.013,0,127.133-1.104,127.133-41.088
		v-47.729c0-0.067-0.021-0.135-0.021-0.201c0-0.092,0.023-0.159,0.023-0.227v-47.728c0-0.541-0.203-0.991-0.293-1.486
		c0.045-0.563,0.293-1.036,0.293-1.62v-44.781c-0.562,1.035-1.352,1.959-2.051,2.904
		C454.73,256.893,455.922,253.831,455.922,250.386L455.922,250.386z"/>
</g>
</svg>
