<?xml version="1.0" encoding="utf-8"?>
<!-- Generator: Adobe Illustrator 16.0.4, SVG Export Plug-In . SVG Version: 6.00 Build 0)  -->
<!DOCTYPE svg PUBLIC "-//W3C//DTD SVG 1.1//EN" "http://www.w3.org/Graphics/SVG/1.1/DTD/svg11.dtd">
<svg version="1.1" id="Layer_1" xmlns="http://www.w3.org/2000/svg" xmlns:xlink="http://www.w3.org/1999/xlink" x="0px" y="0px"
	 width="665.6px" height="665.6px" viewBox="0 0 665.6 665.6" enable-background="new 0 0 665.6 665.6" xml:space="preserve">
<g>
	<path fill="none" d="M0,0h665.599v665.6H0V0z"/>
	<g>
		<path d="M501.886,348.868l-2.645-15.121c0-92.276-72.914-167.354-162.541-167.354c-89.645,0-162.558,75.076-162.558,167.354
			c0,0-15.128,39.662-15.128,35.49v-35.49c0-100.61,79.706-182.481,177.686-182.481c97.963,0,177.67,81.87,177.67,182.481v35.49
			c0,4.172-0.746-12.805-4.922-12.805S501.888,353.047,501.886,348.868L501.886,348.868z"/>
		<path d="M143.892,455.806c-12.615,0-22.872-10.257-22.872-22.874v-51.66c0-12.612,10.257-22.87,22.872-22.87h24.267
			c4.175,0,0.338,15.127-3.839,15.127h-20.428c-4.274,0.004-7.741,3.469-7.744,7.744v51.66c0.003,4.276,3.47,7.741,7.744,7.745
			h20.428c4.177,0,8.014,15.128,3.839,15.128H143.892z"/>
		<path d="M203.228,338.946c-18.318,0-33.205,14.899-33.205,33.205v69.887c0,18.32,14.887,33.221,33.205,33.221
			c3.298,0,17.155-0.303,25.46-0.696v-134.92c-8.318-0.379-22.253-0.694-25.46-0.694 M203.228,490.386
			c-26.652,0-48.331-21.691-48.331-48.348v-69.889c0-26.639,21.679-48.332,48.331-48.332c0.287,0,30.059,0.349,34.81,1.513
			c3.388,0.82,5.773,3.851,5.776,7.336V481.52c-0.006,3.476-2.376,6.5-5.749,7.337C233.317,490.022,203.515,490.386,203.228,490.386
			 M512.876,455.806c-4.189,0-8.457-15.127-4.268-15.127h19.561c4.271-0.009,7.734-3.473,7.742-7.746v-51.66
			c-0.01-4.273-3.471-7.734-7.742-7.744h-15.293c-4.191,0-8.459-15.125-4.27-15.125h19.561c12.613,0,22.871,10.256,22.871,22.87
			v51.66c0,12.616-10.258,22.873-22.871,22.873L512.876,455.806L512.876,455.806z"/>
		<path d="M443.372,474.558c8.307,0.395,22.16,0.697,25.461,0.697c18.318,0,33.203-14.9,33.203-33.204v-69.904
			c0-18.304-14.885-33.204-33.205-33.204c-3.207,0-17.139,0.318-25.459,0.696V474.558L443.372,474.558z M435.81,481.518h0.15H435.81
			z M468.831,490.382c-0.285,0-30.135-0.364-34.838-1.528c-3.379-0.825-5.754-3.856-5.748-7.337V332.68
			c-0.004-3.486,2.377-6.523,5.764-7.351c4.721-1.165,34.537-1.513,34.822-1.513c26.641,0,48.332,21.691,48.332,48.33v69.905
			C517.163,468.69,495.472,490.381,468.831,490.382L468.831,490.382z"/>
	</g>
</g>
</svg>
