<?xml version="1.0" encoding="utf-8"?>
<!-- Generator: Adobe Illustrator 16.0.4, SVG Export Plug-In . SVG Version: 6.00 Build 0)  -->
<!DOCTYPE svg PUBLIC "-//W3C//DTD SVG 1.1//EN" "http://www.w3.org/Graphics/SVG/1.1/DTD/svg11.dtd">
<svg version="1.1" id="Layer_1" xmlns="http://www.w3.org/2000/svg" xmlns:xlink="http://www.w3.org/1999/xlink" x="0px" y="0px"
	 width="665.6px" height="665.6px" viewBox="0 0 665.6 665.6" enable-background="new 0 0 665.6 665.6" xml:space="preserve">
<g>
	<path fill="none" d="M0,0h665.6v665.601H0V0z"/>
	<g>
		<path d="M538.952,495.987c0,3.707-2.876,6.58-6.582,6.58h-81.443c-3.705,0-6.58-2.873-6.58-6.58v-21.055
			c0.136,0,0.257,0.074,0.409,0.074h94.196V495.987L538.952,495.987z M345.611,434.286H139.11c-1.226,0-2.042,0-2.466-0.408
			c-2.057-2.061-2.057-9.879-2.057-15.221V393.97h296.177c0.148,0,0.271-0.074,0.408-0.074v40.391H345.611L345.611,434.286z
			 M353.644,508.815h-88.45l13.78-60.539h60.889L353.644,508.815L353.644,508.815z M134.586,173.49c0-2.89,0-7.412,0.409-8.229
			c0,0,0.832-0.41,3.705-0.41h344.72c2.467,0,15.218,0.818,15.218,11.513v16.126c-0.135-0.016-0.257-0.076-0.408-0.076H134.586
			V173.49z M450.928,299.772c-10.696,0-19.757,8.639-19.757,19.742v61.37c-0.139,0-0.259-0.074-0.408-0.074H134.586V205.574H498.23
			c0.137,0,0.273-0.076,0.408-0.09v94.288H450.928z M532.371,312.933c3.705,0,6.58,2.873,6.58,6.58v7.412h-94.196
			c-0.151,0-0.272,0.061-0.408,0.077v-7.08c0-3.692,2.874-6.58,6.58-6.58L532.371,312.933L532.371,312.933z M444.347,339.996
			c0.136,0.017,0.257,0.09,0.409,0.09h94.196v121.761h-94.196c-0.152,0-0.273,0.076-0.41,0.076L444.347,339.996L444.347,339.996z
			 M532.37,299.773H511.8V176.364c0-14.81-11.921-25.096-28.788-25.096H138.701c-3.706,0-9.049,0.408-13.161,4.524
			c-4.524,4.537-4.524,10.694-4.524,18.106v245.169c0,9.453,0,18.926,5.764,24.688c2.874,2.875,6.989,4.523,11.922,4.523h126.51
			l-12.558,58.814c-0.119,0.59-0.015,1.148,0,1.723h-10.284c-3.706,0-6.58,2.891-6.58,6.58c0,3.707,2.872,6.582,6.58,6.582H376.88
			c3.706,0,6.987-2.875,6.987-6.58c0-3.693-2.873-6.582-6.58-6.582h-10.302c0-0.029,0.018-0.045,0.018-0.074
			c0-1.24-0.41-2.467-0.818-3.299l-12.146-57.166h76.726c0.148,0,0.271-0.09,0.408-0.09v47.395c0,10.693,8.651,19.74,19.756,19.74
			h81.444c11.104,0,19.741-8.639,19.741-19.74V319.514c0-10.695-8.639-19.742-19.741-19.742L532.37,299.773z"/>
		<path d="M292.137,324.453l44.43-30.436l-44.43-32.51V324.453z"/>
	</g>
</g>
</svg>
