<?xml version="1.0" encoding="utf-8"?>
<!-- Generator: Adobe Illustrator 16.0.4, SVG Export Plug-In . SVG Version: 6.00 Build 0)  -->
<!DOCTYPE svg PUBLIC "-//W3C//DTD SVG 1.1//EN" "http://www.w3.org/Graphics/SVG/1.1/DTD/svg11.dtd">
<svg version="1.1" id="Layer_1" xmlns="http://www.w3.org/2000/svg" xmlns:xlink="http://www.w3.org/1999/xlink" x="0px" y="0px"
	 width="665.6px" height="665.6px" viewBox="0 0 665.6 665.6" enable-background="new 0 0 665.6 665.6" xml:space="preserve">
<g>
	<path fill="none" d="M0,0h665.6v665.6H0V0z"/>
	<path d="M339.914,474.294l-116.571-98.828l290.27-185.598L339.914,474.292V474.294z M220.464,443.202v-50.66l26.831,22.74
		L220.463,443.2L220.464,443.202z M483.356,191.566L211.47,365.391l-71.994-61.026L483.356,191.566L483.356,191.566z
		 M544.131,166.182c-0.098-1.823-0.39-2.951-1.044-3.98c-0.57-0.78-0.764-0.793-0.89-0.933c-0.767-0.851-1.726-1.504-2.797-1.906
		c-1.922-0.626-3.216-0.585-4.495-0.236c-0.154,0.027-412.711,135.245-412.711,135.245c-2.556,0.846-4.456,3.007-4.969,5.651
		c-0.523,2.647,0.431,5.369,2.491,7.111l85.855,72.788v81.75c-0.003,3.041,1.851,5.777,4.676,6.902
		c0.878,0.363,1.819,0.547,2.769,0.542c1.99,0,3.939-0.793,5.373-2.282l40.29-41.891l78.241,66.329
		c1.343,1.146,3.051,1.772,4.815,1.769c3.326-0.446,5.22-1.713,6.347-3.562l194.854-319.038c0.919-1.768,1.196-2.992,1.196-4.26
		L544.131,166.182z"/>
</g>
</svg>
