<?xml version="1.0" encoding="utf-8"?>
<!-- Generator: Adobe Illustrator 16.0.4, SVG Export Plug-In . SVG Version: 6.00 Build 0)  -->
<!DOCTYPE svg PUBLIC "-//W3C//DTD SVG 1.1//EN" "http://www.w3.org/Graphics/SVG/1.1/DTD/svg11.dtd">
<svg version="1.1" id="Layer_1" xmlns="http://www.w3.org/2000/svg" xmlns:xlink="http://www.w3.org/1999/xlink" x="0px" y="0px"
	 width="665.6px" height="665.6px" viewBox="0 0 665.6 665.6" enable-background="new 0 0 665.6 665.6" xml:space="preserve">
<g>
	<path d="M351.314,336.783c6.883-0.881,13.094-2.252,19.32-2.342c9.805-0.145,17.73,4.895,25.271,10.654
		c3.625,2.77,7.629,5.043,11.461,7.541c0.436-0.312,0.871-0.627,1.309-0.939c-1.174-7.18-1.803-14.506-3.658-21.504
		c-2.301-8.676-7.809-12.44-16.787-13.036c-1.992-0.133-3.994-0.24-5.965-0.537c-3.863-0.584-6.057-2.953-5.85-6.822
		c0.221-4.143,2.945-6.414,6.951-6.354c13.643,0.199,25.979,3.117,32.23,17.128c3.785-4.481,7.057-9.122,11.082-12.976
		c10.479-10.03,22.938-11.292,36.234-6.908c4.449,1.467,6.504,5.232,4.16,9.598c-2.998,5.582-6.697,11.231-11.404,15.354
		c-9.695,8.488-21.664,12.762-34.74,15.068c0.207,3.828,0.408,7.527,0.676,12.455c4.49-2.883,8.441-4.971,11.883-7.699
		c18.164-14.412,36.512-15.043,55.488-1.537c19.268,13.713,28.695,33.326,32.318,55.953c5.527,34.535-6.172,64.049-28.285,89.842
		c-7.1,8.281-15.773,15.242-23.957,22.549c-8.787,7.848-18.961,8.312-29.43,4.158c-6.166-2.445-12.123-5.486-17.986-8.611
		c-4.348-2.318-8.322-2.508-12.658-0.08c-4.496,2.516-9.148,4.764-13.807,6.973c-13.42,6.365-26.031,5.967-37.408-4.607
		c-1.699-1.58-3.652-2.889-5.504-4.305c-0.088-0.066-0.316,0.053-0.479,0.086c-1.359,9.523-2.09,10.146-11.947,10.146
		c-61.828,0.002-123.658,0.004-185.486-0.012c-1.992,0-4.393,0.488-5.879-0.426c-2.117-1.305-3.836-3.527-5.179-5.695
		c-0.675-1.092-0.154-2.93-0.154-4.428c-0.002-85.328,0.035-170.656-0.097-255.982c-0.008-4.874,1.377-8.502,4.653-12.03
		c12.573-13.539,24.96-27.253,37.274-41.029c0.915-1.021,0.96-3.053,0.97-4.617c0.075-12.166,0.016-24.332,0.053-36.497
		c0.02-6.725,1.878-8.698,8.569-8.705c43.164-0.042,86.329-0.039,129.491-0.005c6.982,0.006,8.914,2.001,8.93,8.953
		c0.033,14.998-0.043,29.998,0.064,44.996c0.014,2.077,0.672,4.194,1.301,6.209c0.543,1.733,1.467,3.348,2.221,5.015
		c4.871,10.759,11.625,21.107,14.08,32.392c2.459,11.306,0.648,23.545,0.662,35.375C351.33,298.694,351.314,317.845,351.314,336.783
		z M338.873,503.217c0.607-6.01,0.15-10.812-3.984-15.852c-20.611-25.109-31.469-53.537-26.521-86.525
		c3.1-20.672,11.27-38.965,27.389-52.92c2.588-2.242,3.449-4.393,3.438-7.621c-0.098-25.823-0.051-51.648-0.064-77.474
		c0-1.624-0.15-3.247-0.24-5.06c-38.836,0-77.355,0-115.89,0c0,82.055,0,163.738,0,245.449
		C261.82,503.217,300.227,503.217,338.873,503.217z M509.365,414.414c-0.246-2.648-0.408-6.824-1.053-10.926
		c-3.129-19.916-10.549-37.535-27.908-49.332c-10.396-7.061-24.098-10.018-36.934,0.562c-3.834,3.16-8.01,6.02-12.363,8.406
		c-8.922,4.889-18.549,5.891-27.932,1.965c-5.742-2.404-10.959-6.217-16.117-9.818c-6.098-4.254-12.057-8.02-20.074-7.32
		c-13.162,1.145-22.918,8.131-30.371,18.109c-14.189,18.99-18.838,40.766-14.729,63.879c5.619,31.596,24.047,55.092,49.682,73.246
		c2.773,1.965,7.83,2.289,11.283,1.355c6.021-1.625,11.963-4.248,17.316-7.482c10.213-6.166,19.852-6.082,30.078-0.092
		c5.404,3.166,11.389,5.426,17.277,7.652c4.496,1.699,8.955,0.873,12.586-2.477c8.064-7.432,16.779-14.324,23.896-22.586
		C499.654,461.398,508.906,440.338,509.365,414.414z M155.577,257.631c0,82.183,0,163.789,0,245.593c18.304,0,36.348,0,54.454,0
		c0-82.043,0-163.756,0-245.593C191.75,257.631,173.822,257.631,155.577,257.631z M198.421,195.624c40.975,0,81.352,0,121.852,0
		c0-12.252,0-24.157,0-36.136c-40.801,0-81.288,0-121.852,0C198.421,171.703,198.421,183.493,198.421,195.624z M338.125,245.211
		c-0.811-2.076-1.326-3.615-1.998-5.083c-4.225-9.222-8.666-18.352-12.641-27.68c-1.414-3.317-3.219-4.275-6.699-4.264
		c-38.476,0.121-76.951,0.074-115.426,0.085c-1.42,0-2.841,0.126-4.919,0.225c1.213,1.724,2.002,2.93,2.875,4.072
		c7.079,9.259,14.659,18.188,21.032,27.909c2.679,4.086,5.232,4.822,9.456,4.807c34.144-0.127,68.289-0.071,102.433-0.071
		C334.018,245.211,335.797,245.211,338.125,245.211z M185.042,214.104c-9.247,10.397-18.057,20.304-27.292,30.688
		c17.503,0,33.794,0,50.771,0C200.515,234.33,192.969,224.465,185.042,214.104z M430.762,323.207
		c0.254,0.479,0.51,0.957,0.766,1.436c6.342-3.701,12.684-7.401,19.025-11.103c-0.283-0.482-0.564-0.967-0.848-1.449
		C441.023,311.741,435.549,316.886,430.762,323.207z"/>
</g>
</svg>
