<?xml version="1.0" encoding="utf-8"?>
<!-- Generator: Adobe Illustrator 16.0.4, SVG Export Plug-In . SVG Version: 6.00 Build 0)  -->
<!DOCTYPE svg PUBLIC "-//W3C//DTD SVG 1.1//EN" "http://www.w3.org/Graphics/SVG/1.1/DTD/svg11.dtd">
<svg version="1.1" id="Layer_1" xmlns="http://www.w3.org/2000/svg" xmlns:xlink="http://www.w3.org/1999/xlink" x="0px" y="0px"
	 width="665.6px" height="665.6px" viewBox="0 0 665.6 665.6" enable-background="new 0 0 665.6 665.6" xml:space="preserve">
<g>
	<path fill="none" d="M0,0h665.6v665.6H0V0z"/>
	<path d="M463.199,169.25l-3.134,13.57c55.769,12.872,76.921,58.632,84.771,86.91c-39.011-34.151-97.517-45.87-103.375-41.791
		c-0.599,0.416-1.672,1.224-2.534,1.85c-0.049-0.066-0.1-0.131-0.152-0.194l-5.902,4.828c-15.781,12.415-45.55,39.289-60.428,75.612
		c-5.815-28.655-7.794-79.188,36.783-115.443l-8.781-10.785c-6.083,4.953-11.147,10.216-15.77,15.587
		c-19.107,5.219-45.87,17.745-64.184,48.64c0.222-7.306,1.683-15.865,5.01-24.41c6.347-16.27,21.307-37.772,56.503-47.805
		c12.805-3.66,27.306-3.966,41.904-0.89l3.131,0.668l5.33-1.031l9.95-6.694c8.95-6.012,17.996-10.187,26.932-12.4
		c39.26-9.868,64.227,2.519,78.283,14.613c8.016,6.89,13.569,14.53,17.146,21.39c-30.91-20.305-61.264-19.275-80.678-15.28
		C477.532,173.452,470.741,170.989,463.199,169.25 M457.283,494.159c-12.386-1.853-24.797-3.542-37.228-5.066
		c23.02-55.571,38.494-113.217,40.596-152.643c2.658-49.198-7.265-79.37-14.627-94.622c0.473-0.349,1-0.752,1.39-1.03
		c1.992,0.25,4.789,0.737,8.144,1.447C471.409,273.211,504.281,361.375,457.283,494.159 M305.477,480.339
		c-26.137,0-75.166,3.646-125.476,10.118c3.185-54.25,48.192-97.435,103.208-97.435c53.288,0,97.279,40.485,102.888,92.312
		C353.545,482.105,324.432,480.339,305.477,480.339 M572.044,214.967l11.69-4.425c1.169-12.428-7.934-34.542-27.139-51.02
		c-16.562-14.237-45.773-28.808-90.726-17.563c-10.493,2.616-21.015,7.445-31.327,14.361l-7.5,5.053l-0.267-0.056
		c-16.825-3.536-33.637-3.159-48.57,1.128c-40.706,11.593-58.172,36.92-65.66,56.127c-8.727,22.337-6.916,45.022-0.807,55.015
		l12.441-1.156c11.19-29.38,29.796-45.007,46.65-53.427c-30.117,54.944-5.261,117.572-4.94,118.336l13.275-1.364
		c7.125-38.146,37.062-69.07,55.67-85.103c6.262,14.35,14.25,41.64,11.927,84.838c-2.075,38.815-17.772,96.404-41.07,151.697
		c-1.85-0.209-3.702-0.416-5.539-0.625c-4.982-60.193-55.473-107.679-116.944-107.679c-63.336,0-114.971,50.423-117.225,113.23
		c-26.637,3.688-53.065,8.128-76.126,13.221l3.021,13.599c69.752-15.436,170.846-24.899,212.598-24.899
		c46.83,0,162.689,11.691,230.578,29.352l3.506-13.484c-19.929-5.178-43.573-9.798-68.29-13.793
		c43.24-123.945,20.026-209.48,2.268-249.325c24.091,7.544,57.214,22.519,77.101,49.225l12.525-4.718
		c-0.069-0.834-6.234-67.706-57.756-103.696C524.489,187.633,548.649,193.104,572.044,214.967"/>
</g>
</svg>
