<?xml version="1.0" encoding="utf-8"?>
<!-- Generator: Adobe Illustrator 16.0.4, SVG Export Plug-In . SVG Version: 6.00 Build 0)  -->
<!DOCTYPE svg PUBLIC "-//W3C//DTD SVG 1.1//EN" "http://www.w3.org/Graphics/SVG/1.1/DTD/svg11.dtd">
<svg version="1.1" id="Layer_1" xmlns="http://www.w3.org/2000/svg" xmlns:xlink="http://www.w3.org/1999/xlink" x="0px" y="0px"
	 width="665.6px" height="665.6px" viewBox="0 0 665.6 665.6" enable-background="new 0 0 665.6 665.6" xml:space="preserve">
<g>
	<path fill="none" d="M0-1.946h665.6v665.601H0V-1.946z"/>
	<g>
		<path d="M505.817,431.7l-64.077,64.08c-5.25,5.252-12.087,7.883-18.91,7.883c-6.82,0-13.658-2.631-19.438-7.883L173.336,265.724
			c-10.516-10.513-10.516-27.834,0-38.347l64.08-64.08c4.718-5.249,12.068-7.88,18.908-7.88c6.82,0,13.658,2.631,19.438,7.88
			l230.055,230.057C516.318,403.865,516.318,421.2,505.817,431.7L505.817,431.7z M270.499,490.53
			c-7.765,7.834-20.406,7.891-28.239,0.127c-0.042-0.041-0.084-0.084-0.126-0.127l-64.078-64.08
			c-3.677-3.674-5.779-8.924-5.779-14.188c0-5.248,2.104-10.498,5.779-14.174l53.838-53.838l92.443,92.441L270.499,490.53
			L270.499,490.53z M354.016,222.129l54.109-54.11c7.354-7.353,20.996-7.867,28.362,0l64.08,64.094
			c3.676,3.676,5.778,8.924,5.778,14.173c0,5.249-2.104,10.514-5.778,14.188L446.2,314.83l-92.503-92.504
			C353.789,222.25,353.925,222.22,354.016,222.129L354.016,222.129z M515.273,383.901l-59.087-59.088l54.353-54.369
			c6.309-6.292,9.984-15.232,9.984-24.158c0-8.924-3.677-17.849-9.984-24.157l-64.078-64.08c-13.132-13.13-35.188-13.13-48.317,0
			l-54.109,54.096c-0.092,0.09-0.119,0.226-0.195,0.317l-58.619-58.617c-7.881-7.882-17.865-12.088-28.894-12.088
			c-11.027,0-21.013,4.206-28.894,12.086l-64.08,64.08c-7.88,7.882-12.071,17.866-12.071,28.893s4.19,21.011,12.072,28.893
			l58.56,58.557l-53.824,53.839c-6.309,6.308-9.984,15.233-9.984,24.157c0,8.939,3.677,17.867,9.984,24.16l64.08,64.094
			c6.82,6.822,15.231,9.967,24.157,9.967c8.396,0,17.337-3.145,24.158-9.967l53.837-53.838l59.087,59.086
			c7.882,7.881,17.866,12.072,28.896,12.072c11.025,0,21.01-4.191,28.893-12.072l64.08-64.08
			c7.88-7.879,12.085-17.863,12.085-28.891c0-11.029-4.205-21.014-12.086-28.895v0.002H515.273z"/>
		<path d="M284.684,312.997c-1.044,1.058-2.102,1.058-3.146,1.058c-0.529,0-2.104,0-3.161-1.06c-1.573-1.572-1.573-4.205,0-5.778
			c1.588-1.044,2.632-1.044,3.161-1.044c0.514,0,2.102,0,3.146,1.044C286.257,308.79,286.257,311.422,284.684,312.997
			 M281.538,292.513c-4.734,0-9.455,1.573-12.616,5.248c-7.354,6.838-6.823,18.381,0,25.748c3.676,3.66,7.882,5.248,12.616,5.248
			c4.72,0,9.455-1.587,12.601-5.248c6.823-6.838,6.823-18.395,0-25.748C290.993,294.086,286.257,292.513,281.538,292.513
			 M323.028,275.176c-1.044,1.06-2.104,1.06-3.146,1.06c-1.062,0-2.104,0-3.162-1.06c-1.044-1.044-1.044-2.102-1.044-3.146
			c0-0.529,0-2.102,1.044-3.161c1.588-0.515,2.632-1.044,3.162-1.044c1.042,0,2.102,0,3.146,1.044c1.06,1.06,1.06,2.102,1.06,3.161
			C324.086,273.074,324.086,274.132,323.028,275.176 M319.882,254.165c-4.736,0-9.455,1.573-12.617,5.25
			c-6.822,6.838-6.822,18.395,0,25.746c3.349,3.347,7.884,5.234,12.617,5.25c4.719,0,9.453-1.573,12.6-5.25
			c6.823-6.838,6.823-18.379,0-25.746C329.337,255.739,324.601,254.165,319.882,254.165 M323.028,351.339
			c-1.044,1.045-2.104,1.045-3.146,1.045c-0.53,0-2.104,0-3.162-1.045c-1.573-1.572-1.573-4.205,0-5.777
			c1.588-1.045,2.632-1.045,3.162-1.045c1.042,0,2.102,0,3.146,1.045C324.601,347.134,324.601,349.767,323.028,351.339
			 M319.882,330.857c-4.736,0-9.455,1.573-12.617,5.25c-6.822,6.819-6.822,18.377,0,25.729c3.347,3.351,7.882,5.242,12.617,5.267
			c4.719,0,9.453-1.591,12.6-5.267c6.823-6.822,6.823-18.379,0-25.731C329.337,332.431,324.601,330.856,319.882,330.857
			 M361.372,312.997c-1.045,1.058-2.104,1.058-3.147,1.058c-0.53,0-2.103,0-3.163-1.06c-1.573-1.572-1.573-4.205,0-5.778
			c1.59-1.044,2.633-1.044,3.162-1.044c0.515,0,2.104,0,3.146,1.044c1.571,1.573,1.571,4.206,0,5.779 M358.224,292.513
			c-4.734,0-9.453,1.573-12.615,5.248c-6.82,6.838-6.82,18.381,0,25.748c3.354,3.339,7.885,5.225,12.615,5.248
			c4.72,0,9.455-1.587,12.603-5.248c6.82-6.838,6.82-18.395,0-25.748C367.679,294.086,362.945,292.513,358.224,292.513
			 M361.371,389.683c-1.043,1.045-2.104,1.045-3.146,1.045c-0.53,0-2.103,0-3.163-1.045c-1.043-1.059-1.043-2.102-1.043-3.145
			c0-1.062,0-2.105,1.043-3.164c1.59-0.513,2.633-0.513,3.162-0.513c0.515,0,2.104,0,3.146,1.043
			C362.943,385.478,362.943,388.11,361.371,389.683 M358.224,369.199c-4.734,0-9.453,1.574-12.615,5.25
			c-6.82,6.822-6.82,18.38,0,25.729c3.348,3.351,7.882,5.242,12.615,5.267c4.72,0,9.455-1.588,12.603-5.267
			c6.82-6.821,6.82-18.379,0-25.729C367.679,370.774,362.945,369.199,358.224,369.199 M399.717,351.865
			c-1.061,1.043-2.104,1.043-3.146,1.043c-0.528,0-2.104,0-3.163-1.043c-1.571-1.573-1.571-4.207,0-5.778
			c1.588-1.574,2.634-1.574,3.161-1.574c0.517,0,2.088,0,3.146,1.045c1.045,1.059,1.045,2.102,1.045,3.162
			C400.761,349.233,400.761,350.806,399.717,351.865 M396.572,330.854c-4.734,0-9.455,1.573-12.617,5.25
			c-6.82,6.836-6.82,18.394,0,25.745c3.349,3.347,7.884,5.232,12.615,5.25c4.191,0,9.455-1.573,12.603-5.25
			c7.353-6.838,6.821-18.395,0-25.748C406.025,332.426,401.29,330.852,396.572,330.854"/>
	</g>
</g>
</svg>
