<?xml version="1.0" encoding="utf-8"?>
<!-- Generator: Adobe Illustrator 16.0.4, SVG Export Plug-In . SVG Version: 6.00 Build 0)  -->
<!DOCTYPE svg PUBLIC "-//W3C//DTD SVG 1.1//EN" "http://www.w3.org/Graphics/SVG/1.1/DTD/svg11.dtd">
<svg version="1.1" id="Layer_1" xmlns="http://www.w3.org/2000/svg" xmlns:xlink="http://www.w3.org/1999/xlink" x="0px" y="0px"
	 width="665.6px" height="665.6px" viewBox="0 0 665.6 665.6" enable-background="new 0 0 665.6 665.6" xml:space="preserve">
<rect x="77" y="76.675" fill="none" width="512" height="512"/>
<g>
	<path fill="none" d="M0,0h665.6v665.6H0V0z"/>
	<path d="M443.8,483.833c-10.198,0-18.521-8.341-18.521-18.521c0-10.199,8.322-18.537,18.521-18.537
		c10.18,0,18.52,8.338,18.52,18.537C462.796,475.033,454.457,483.832,443.8,483.833L443.8,483.833z M265.03,484.753
		c-10.182,0-18.521-8.338-18.521-18.521c0-10.197,8.34-18.52,18.52-18.52c10.181,0,18.521,8.322,18.521,18.52
		C284.011,476.415,275.211,484.753,265.03,484.753L265.03,484.753z M239.092,384.718l-42.14-152.832h307.983l-42.14,152.832H239.092
		L239.092,384.718z M443.8,430.115H249.75l-6.957-30.116H474.36l50.953-183.392h-332.54c-12.039-38.899-41.678-51.877-67.616-50.479
		l0.938,15.28c12.04-0.936,38.438,1.86,50.479,34.739l3.7,13.881c0,0.937,0.461,1.86,0.461,2.78l44.474,161.633l12.04,50.493
		c-4.177,5.561-6.956,12.5-6.956,20.379c0,18.98,15.279,34.262,34.275,34.262c18.982,0,34.277-15.28,34.277-34.262
		c0-7.418-2.319-13.896-6.496-19.457H414.62c-3.239,5.1-5.56,12.039-5.56,18.52c-0.047,18.884,15.225,34.23,34.108,34.276
		c0.057,0.001,0.112,0.001,0.169,0c18.89,0.041,34.235-15.239,34.276-34.128c0-0.05,0-0.1,0-0.148
		c0-18.98-15.296-34.26-33.816-34.26H443.8z"/>
</g>
</svg>
