<?xml version="1.0" encoding="utf-8"?>
<!-- Generator: Adobe Illustrator 16.0.4, SVG Export Plug-In . SVG Version: 6.00 Build 0)  -->
<!DOCTYPE svg PUBLIC "-//W3C//DTD SVG 1.1//EN" "http://www.w3.org/Graphics/SVG/1.1/DTD/svg11.dtd">
<svg version="1.1" id="Layer_1" xmlns="http://www.w3.org/2000/svg" xmlns:xlink="http://www.w3.org/1999/xlink" x="0px" y="0px"
	 width="665.6px" height="665.6px" viewBox="0 0 665.6 665.6" enable-background="new 0 0 665.6 665.6" xml:space="preserve">
<g>
	<path fill="none" d="M0,0h665.6v665.6H0V0z"/>
	<g>
		<path d="M255.273,529.973c9.697,0,16.973-7.76,16.973-16.972c0-9.698-7.761-16.989-16.973-16.989
			c-9.228,0-16.973,7.775-16.973,16.989C237.801,522.212,245.56,529.973,255.273,529.973 M271.761,198.69h-33.476
			c-3.873,0-6.793,3.403-6.793,6.79c0,3.39,3.404,6.793,6.793,6.793h33.476c3.887,0,6.777-3.403,6.777-6.792
			C278.538,202.094,275.649,198.69,271.761,198.69 M407.407,347.521v-0.923c-24.626-18.031-70.811-51.448-70.811-51.448v27.971
			c-64.668,0.68-123.604,32.675-123.604,71.144c29.09-48.256,123.604-22.191,123.604-22.191v33.596
			C336.597,405.669,382.781,364.706,407.407,347.521"/>
		<path d="M512.178,195.029H317.203v-26.186c-0.06-14.41,11.573-26.141,25.983-26.2c0.066,0,0.134,0,0.201,0h142.604
			c14.552,0,26.186,11.648,26.186,26.2V195.029z M512.178,434.16H317.203V209.098h194.974L512.178,434.16L512.178,434.16z
			 M526.26,168.845c0.051-22.189-17.896-40.218-40.085-40.269c-0.061,0-0.122,0-0.184,0H343.388
			c-22.312,0-40.254,17.957-40.254,40.269v305.571c-0.057,22.174,17.872,40.196,40.046,40.254c0.069,0,0.138,0,0.208,0h142.604
			c22.312,0,40.269-17.94,40.269-40.254L526.26,168.845L526.26,168.845z M512.177,474.416c0.063,14.397-11.557,26.121-25.954,26.185
			c-0.077,0-0.154,0-0.231,0H343.388c-14.404,0.058-26.127-11.572-26.185-25.976c0-0.07,0-0.14,0-0.209v-26.201h194.974V474.416z"/>
		<path d="M414.697,492.844c9.696,0,16.973-7.76,16.973-16.973c0-9.697-7.76-16.987-16.973-16.987
			c-9.228,0-16.973,7.774-16.973,16.987C397.225,485.084,404.986,492.844,414.697,492.844 M431.187,161.56h-33.478
			c-3.871,0-6.791,3.403-6.791,6.792c0,3.39,3.403,6.793,6.791,6.793h33.478c3.888,0,6.776-3.403,6.776-6.793
			C437.963,164.962,435.073,161.56,431.187,161.56 M352.752,511.396v0.151c0.064,14.397-11.556,26.121-25.954,26.186
			c-0.077,0-0.154,0-0.23,0H183.963c-14.403,0.059-26.127-11.57-26.186-25.974c0-0.07,0-0.142,0-0.212v-26.2h151.818
			c-1.725-5.278-1.8-10.331-1.438-14.069h-150.38V246.229h152.65v-14.082h-152.65v-26.186
			c-0.058-14.403,11.572-26.126,25.976-26.184c0.07,0,0.141,0,0.21,0h126.464v-14.07H183.963
			c-22.174-0.058-40.197,17.871-40.255,40.045c0,0.069,0,0.139,0,0.208v305.587c-0.058,22.174,17.871,40.196,40.045,40.255
			c0.07,0,0.14,0,0.21,0h142.605c22.07,0,39.815-17.579,40.193-39.561c-5.083-0.072-9.742-0.361-14.009-0.844"/>
	</g>
</g>
</svg>
