<?xml version="1.0" encoding="utf-8"?>
<!-- Generator: Adobe Illustrator 16.0.4, SVG Export Plug-In . SVG Version: 6.00 Build 0)  -->
<!DOCTYPE svg PUBLIC "-//W3C//DTD SVG 1.1//EN" "http://www.w3.org/Graphics/SVG/1.1/DTD/svg11.dtd">
<svg version="1.1" id="Layer_1" xmlns="http://www.w3.org/2000/svg" xmlns:xlink="http://www.w3.org/1999/xlink" x="0px" y="0px"
	 width="48px" height="48px" viewBox="0 0 48 48" enable-background="new 0 0 48 48" xml:space="preserve">
<g>
	<path fill="none" d="M0-0.001h665.6v665.602H0V-0.001z"/>
	<g>
		<path d="M530.117,431.091c-22.19,9.529-40.164,26.459-50.723,47.621l-71.855-0.529c16.913-25.398,26.412-59.254,26.412-95.24
			c0-38.09-11.089-75.123-30.632-101.581h76.604c10.559,20.634,28.527,37.033,50.19,46.563L530.117,431.091L530.117,431.091z
			 M530.117,478.712h-31.18c7.926-12.178,18.5-22.223,31.178-29.104v29.104H530.117z M288.142,478.712
			c-19.56-23.281-30.118-58.195-30.118-95.242c0-40.736,13.736-78.829,35.399-101.581h88.767
			c22.175,23.283,35.397,60.843,35.397,101.581c0,36.518-11.104,71.961-30.118,95.242H288.142z M195.685,478.712
			c-10.574-21.691-29.06-38.621-50.722-48.148V330.041c24.294-9.002,43.325-25.929,55.471-48.151h71.855
			c-19.544,26.458-30.648,62.958-30.648,101.58c0,35.459,9.519,69.312,26.428,95.242H195.685z M145.492,478.712v-29.104
			c12.678,6.881,23.233,16.926,31.159,29.104h-31.157H145.492z M144.963,281.891h35.396c-8.984,13.235-20.604,23.81-35.396,30.163
			V281.891L144.963,281.891z M421.807,193.547l6.868,17.456l-189.59,51.584L421.807,193.547z M468.823,218.4l4.235,17.458
			L285.874,264.01L468.823,218.4z M507.398,248.035l2.117,16.928H367.183l140.216-16.926L507.398,248.035z M529.588,281.361v28.046
			c-12.146-6.884-22.723-16.398-30.647-28.046H529.588L529.588,281.361z M538.573,265.491h-12.161l-3.689-27.515
			c0-4.221-3.69-7.397-7.926-7.397h-1.062l-22.706,3.176l-7.412-28.045c-0.514-3.706-4.22-6.355-7.926-6.355
			c-1.044,0-1.044,0.53-2.104,0.53l-27.999,7.412l-11.105-28.045c-1.587-3.177-4.749-5.295-7.926-5.295c-1.062,0-2.104,0-3.161,0.53
			l-226.138,89.946h-60.22c-4.769,0-8.457,3.705-8.457,8.471v213.732c0,4.768,3.689,8.473,8.457,8.473l401.534,0.529
			c4.75,0,8.457-3.705,8.457-8.471V273.435C546.5,268.669,543.323,265.492,538.573,265.491L538.573,265.491z"/>
		<path d="M471.471,385.591c-3.16,0-6.337-3.178-6.337-6.354s3.177-6.338,6.338-6.338c3.705,0,6.338,3.162,6.338,6.338
			C477.81,382.942,474.648,385.591,471.471,385.591 M471.472,355.956c-13.206,0-23.251,10.062-23.251,23.281
			c0,13.235,10.574,23.281,23.251,23.281c12.675,0,23.25-10.046,23.25-23.281C494.722,366.016,484.678,355.956,471.472,355.956
			 M201.492,385.591c-3.161,0-6.342-3.178-6.342-6.354s3.181-6.338,6.343-6.338c3.157,0,6.338,3.162,6.338,6.338
			S204.654,385.591,201.492,385.591 M201.492,355.956c-13.206,0-23.25,10.062-23.25,23.281c0,13.235,10.571,23.281,23.25,23.281
			c12.677,0,23.25-10.046,23.25-23.281C224.742,366.016,214.169,355.956,201.492,355.956"/>
	</g>
</g>
</svg>
