<?xml version="1.0" encoding="utf-8"?>
<!-- Generator: Adobe Illustrator 16.0.4, SVG Export Plug-In . SVG Version: 6.00 Build 0)  -->
<!DOCTYPE svg PUBLIC "-//W3C//DTD SVG 1.1//EN" "http://www.w3.org/Graphics/SVG/1.1/DTD/svg11.dtd">
<svg version="1.1" id="Layer_1" xmlns="http://www.w3.org/2000/svg" xmlns:xlink="http://www.w3.org/1999/xlink" x="0px" y="0px"
	 width="665.6px" height="665.6px" viewBox="0 0 665.6 665.6" enable-background="new 0 0 665.6 665.6" xml:space="preserve">

<g>
	<path fill="none" d="M-77-76.49h665.6V589.11H-77V-76.49z"/>
	<g>
		<path d="M354.688,369.221l-119.58,8.395c-27.88,1.922-55.896-5.566-79.131-21.27L84,309.482l-39.12-68.436
			c-1.965-3.797-0.422-7.17,1.696-9.092c0.981-0.877,4.536-3.585,8.908-0.757c25.914,16.959,43.221,46.547,43.4,46.85l1.21,2.088
			l30.891,14.16c-0.046,0.62-0.227,1.208-0.242,1.858l-0.015,0.984l0.227,0.969c2.359,9.771,15.021,12.767,32.522,16.882
			c7.882,1.86,16.036,3.782,22.995,6.339c5.824,2.132,12.359,3.6,20.603,4.673l52.022,6.612l11.906-13.736l-62.008-7.896
			c-7.095-0.908-12.601-2.133-17.32-3.858c-7.806-2.873-16.792-4.992-24.718-6.867c-7.429-1.739-18.456-4.343-20.966-5.522
			c1.117-10.014,9.968-17.486,20.118-17.486l104.772,0.395l0.09,0.316c0.243-0.076,25.702-7.457,36.85-9.893
			c35.337-7.594,63.429,8.713,93.806,29.271l20.904,7.502c-0.09-1.904-0.316-3.887-0.392-5.794c-0.121-3.75,0.74-6.866,2.193-9.438
			l-15.037-5.34c-31.799-21.449-63.883-39.875-104.666-30.966c-9.454,2.028-27.562,7.155-34.732,9.214l-103.592-0.395
			c-12.752,0.061-24.384,7.095-30.677,17.654L110.7,268.35c-4.721-7.593-21.905-33.415-46.94-49.799
			c-8.668-5.687-19.62-4.794-27.335,2.195c-7.79,7.033-9.802,18-4.81,27.547l41.069,71.883l74.941,48.77
			c25.896,17.519,57.392,25.914,88.54,23.766l119.579-8.395c8.412-0.484,39.12,12.283,68.468,26.17
			c-0.092-4.355-0.017-8.729,0.453-13.115c0.12-1.105,0.56-2.072,0.803-3.131C399.071,381.775,367.167,368.251,354.688,369.221
			 M210.431,208.493c-43.097,0-69.464-8.533-71.96-13.54v-15.672c18.229,8.29,50.207,10.907,71.96,10.907
			c6.383,0,48.906-0.438,71.431-11.12l0.076,16.157C279.351,199.991,253.228,208.492,210.431,208.493L210.431,208.493z
			 M210.431,81.287c41.223,0,67.045,7.805,71.538,12.707c-4.493,4.886-30.316,12.706-71.538,12.706
			c-43.173,0-69.464-8.593-72.05-12.025C140.967,89.865,167.258,81.287,210.431,81.287z M281.938,128.711
			c-2.587,4.75-28.71,13.266-71.507,13.266c-43.097,0-69.464-8.546-71.96-13.538v-18.502c22.66,10.378,65.532,10.816,71.96,10.816
			c6.383,0,48.635-0.438,71.417-10.588L281.938,128.711L281.938,128.711z M281.938,162.853c-2.587,4.765-28.71,13.266-71.507,13.266
			c-43.097,0-69.464-8.532-71.96-13.524v-17.472c18.229,8.29,50.207,10.907,71.96,10.907c6.383,0,48.893-0.438,71.431-11.103
			L281.938,162.853L281.938,162.853z M296.415,93.994c0-26.02-77.18-26.776-85.982-26.776c-8.805,0-85.985,0.757-85.985,26.776
			c0,0.151,0.075,0.272,0.092,0.423c-0.03,0.212-0.137,0.41-0.137,0.62V195.92c0,21.027,54.08,26.64,86.028,26.64
			c8.744,0,85.423-0.742,85.423-27.607v-32.071c0-0.045-0.013-0.091-0.013-0.136c0-0.06,0.013-0.106,0.013-0.152v-32.07
			c0-0.362-0.135-0.665-0.194-0.998c0.029-0.377,0.194-0.695,0.194-1.088V98.351c-0.377,0.695-0.906,1.315-1.375,1.95
			C295.614,98.365,296.416,96.308,296.415,93.994L296.415,93.994z"/>
		<path d="M429.969,426.464l50.676,14.069v-137.84H429.97L429.969,426.464L429.969,426.464z M494.698,459.017l-78.797-21.857
			V288.639h78.796L494.698,459.017L494.698,459.017z"/>
	</g>
</g>
</svg>
