<?xml version="1.0" encoding="utf-8"?>
<!-- Generator: Adobe Illustrator 16.0.4, SVG Export Plug-In . SVG Version: 6.00 Build 0)  -->
<!DOCTYPE svg PUBLIC "-//W3C//DTD SVG 1.1//EN" "http://www.w3.org/Graphics/SVG/1.1/DTD/svg11.dtd">
<svg version="1.1" id="Layer_1" xmlns="http://www.w3.org/2000/svg" xmlns:xlink="http://www.w3.org/1999/xlink" x="0px" y="0px"
	 width="665.6px" height="665.6px" viewBox="0 0 665.6 665.6" enable-background="new 0 0 665.6 665.6" xml:space="preserve">
<g>
	<path d="M235.283,188.874c0-9.324-0.025-17.959,0.008-26.594c0.029-7.398,2.413-9.773,9.936-9.845
		c6.448-0.062,12.896-0.013,19.713-0.013c0-6.869-0.042-13.162,0.012-19.454c0.053-6.206,2.572-8.792,8.824-8.795
		c59.154-0.03,118.309-0.031,177.463,0c6.279,0.004,8.649,2.498,8.68,8.841c0.161,34.992,0.299,69.984,0.443,104.978
		c0.009,1.961,0.001,3.922,0.001,6.521c2.3,0,4.078,0,5.858,0c14.83,0,29.66-0.034,44.49,0.015
		c8.142,0.026,10.26,2.231,10.26,10.422c0.004,61.32-0.041,122.641,0.083,183.961c0.011,4.946-1.57,8.383-5.324,11.605
		c-32.738,28.11-65.505,56.196-97.822,84.788c-5.287,4.678-10.3,6.154-16.917,6.145c-81.482-0.139-162.965-0.09-244.448-0.091
		c-10.684,0-11.91-1.25-11.91-12.126c0-62.986,0.046-125.974-0.088-188.959c-0.011-5.056,1.492-8.764,5.015-12.377
		c17.679-18.135,35.189-36.437,52.578-54.851c1.6-1.694,2.7-4.586,2.721-6.933c0.201-22.494,0.111-44.99,0.126-67.485
		c0.005-7.308,2.236-9.644,9.437-9.735C221.061,188.808,227.704,188.874,235.283,188.874z M159.914,526.953
		c80.436,0,160.331,0,240.46,0c0-61.156,0-122.034,0-183.106c-80.309,0-160.318,0-240.46,0
		C159.914,405.015,159.914,465.791,159.914,526.953z M385.278,202.412c-55.29,0-109.993,0-164.835,0c0,42.549,0,84.746,0,127.224
		c1.779,0.116,3.238,0.294,4.696,0.294c51.792,0.015,103.583-0.025,155.375,0.088c3.852,0.009,5.13-0.938,5.114-4.986
		c-0.148-39.468-0.088-78.937-0.1-118.405C385.528,205.326,385.377,204.026,385.278,202.412z M505.885,261.146
		c-1.29,0.851-1.835,1.15-2.312,1.533c-28.677,23.059-57.374,46.088-85.933,69.291c-1.479,1.201-2.463,3.895-2.467,5.896
		c-0.129,58.288-0.105,116.577-0.089,174.866c0,1.395,0.198,2.788,0.346,4.743c1.367-1.043,2.182-1.596,2.916-2.236
		c28.235-24.629,56.501-49.223,84.602-74.006c1.666-1.471,2.808-4.461,2.814-6.749c0.162-45.632,0.121-91.265,0.121-136.896
		C505.885,285.77,505.885,273.95,505.885,261.146z M415.771,167.003c-55.288,0-110.019,0-164.837,0c0,7.36,0,14.4,0,21.866
		c2.39,0,4.366,0,6.342,0c44.15,0.001,88.301-0.012,132.453,0.012c8.375,0.005,10.229,1.929,10.229,10.318
		c0.004,40.651,0.002,81.304,0.002,121.956c0,1.711,0,3.422,0,6.175c4.771-3.826,8.387-7.015,12.306-9.772
		c2.768-1.947,3.582-4.216,3.575-7.521c-0.103-45.982-0.069-91.966-0.069-137.949C415.771,170.597,415.771,169.108,415.771,167.003z
		 M280.265,152.422c2.257,0,4.216,0,6.175,0c44.313,0,88.625-0.007,132.939,0.006c8.785,0.002,10.846,2.067,10.883,10.867
		c0.185,44.312,0.354,88.625,0.527,132.938c0.007,1.739,0.001,3.479,0.001,6.29c4.38-3.505,8.129-6.007,11.205-9.164
		c1.73-1.777,3.318-4.635,3.329-7.012c0.19-47.811,0.146-95.622,0.128-143.434c-0.001-1.578-0.224-3.157-0.338-4.681
		c-55.257,0-109.945,0-164.851,0C280.265,142.959,280.265,147.246,280.265,152.422z M204.746,292.36
		c-12.445,12.981-24,25.035-36.005,37.558c12.654,0,24.349,0,36.005,0C204.746,317.571,204.746,305.636,204.746,292.36z
		 M460.78,278.444c8.28-6.675,15.629-12.597,23.827-19.205c-8.867,0-16.27,0-23.827,0C460.78,265.521,460.78,271.424,460.78,278.444
		z"/>
	<path d="M280.864,386.212c9.317,0,18.634-0.041,27.95,0.016c5.301,0.031,8.834,2.787,8.875,6.729
		c0.042,3.945-3.353,6.881-8.766,6.913c-18.966,0.113-37.933,0.111-56.898,0.007c-5.497-0.029-8.838-2.841-8.869-6.816
		c-0.032-4.135,3.528-6.814,9.258-6.838C261.897,386.183,271.381,386.212,280.864,386.212z"/>
</g>
</svg>
