<?xml version="1.0" encoding="utf-8"?>
<!-- Generator: Adobe Illustrator 16.0.4, SVG Export Plug-In . SVG Version: 6.00 Build 0)  -->
<!DOCTYPE svg PUBLIC "-//W3C//DTD SVG 1.1//EN" "http://www.w3.org/Graphics/SVG/1.1/DTD/svg11.dtd">
<svg version="1.1" id="Layer_1" xmlns="http://www.w3.org/2000/svg" xmlns:xlink="http://www.w3.org/1999/xlink" x="0px" y="0px"
	 width="665.6px" height="665.6px" viewBox="0 0 665.6 665.6" enable-background="new 0 0 665.6 665.6" xml:space="preserve">
<g>
	<g>
		<path d="M532.11,343.429H371.875c-0.858,0-2.638,0-5.32,15.885h157.356v174.72H142.706v-174.72h148.338
			c-2.669-15.885-4.435-15.885-5.291-15.885H128.396c-4.384,0-1.573-0.316-1.573,4.065v199.88c0,4.4-2.81,2.542,1.573,2.542H532.11
			c4.383,0,7.688,1.859,7.688-2.542V347.496c0-4.383-3.304-4.065-7.688-4.065"/>
		<path d="M222.433,279.331h59.611v-145.24c0-4.386,3.556-7.942,7.94-7.943c4.388,0.001,7.941,3.557,7.942,7.943v161.123h-43.474
			l75.779,99.829l75.83-99.827h-43.538V134.09c0.001-4.385,3.556-7.941,7.94-7.943c4.383-0.005,7.938,3.543,7.942,7.926
			c0,0.006,0,0.011,0,0.017v145.241h59.657L330.234,421.314L222.433,279.331z M410.978,510.718c1.667,0.413,3.731,0.413,6.227,0.208
			c1.253,0,2.699-0.208,4.574-0.208c3.113,0,6.021-1.856,7.259-4.764c0.619-1.446,1.239-2.89,1.668-4.336
			c0.412,0.207,1.032,0.412,1.238,0.619c2.08,1.032,4.146,1.859,6.021,2.27c2.904,0.828,5.398,0.621,7.259,0.414
			c0.635,0,1.668-0.206,1.874,0c0.62,0.207,1.255,0.62,2.494,1.446c2.698,2.08,7.052,5.385,14.311,4.146
			c1.255-0.205,2.494-0.824,3.526-1.649c2.7,0.825,6.227,1.648,10.371,1.03c4.78-0.825,8.72-4.146,12.246-7.035
			c1.032-0.827,2.906-2.288,3.525-2.7l-6.432-14.486c-2.495,1.032-4.562,2.907-7.053,4.764c-1.445,1.24-4.147,3.306-5.193,3.72
			c-0.62,0.206-2.272-0.414-3.734-0.826c-2.478-0.62-5.384-1.649-8.926-1.444c-1.445,0.207-2.684,0.617-3.733,1.237
			c-1.649-1.237-4.146-2.891-7.465-3.718c-2.698-0.619-5.398-0.619-7.259-0.412c-0.636,0-1.461,0.208-1.668,0.208
			c-1.318-0.537-2.632-1.089-3.938-1.653c-0.619-0.205-1.032-0.412-1.668-0.619c0.412-1.031,0.636-2.287,1.05-3.525
			c1.856-7.656,3.523-17.6-1.669-25.049c-3.32-4.75-8.516-7.449-15.566-8.274c-7.259-0.827-13.485,1.649-17.63,6.83
			c-8.515,10.356-6.656,28.97-3.32,38.914c0.206,0.413,0.206,0.825,0.413,1.446c-12.04,3.318-26.351,3.73-35.914,0.823
			l-4.764,15.106c5.813,1.873,12.659,2.7,19.918,2.7c11.007,0.414,22.412-1.445,31.958-5.178 M415.121,467.246
			c0.413-0.62,1.033-1.238,2.7-1.238h0.826c1.255,0.205,3.526,0.618,4.354,1.65c0.841,1.255,1.462,4.146-0.619,12.215
			c-0.62,2.271-1.24,3.938-1.86,5.592c-1.873,1.031-3.334,2.686-3.954,4.766c-0.619,0.412-1.239,0.826-1.873,1.238v-0.207
			C412.01,483.811,411.597,471.596,415.121,467.246 M174.474,391.086h79.404v-15.883h-79.404V391.086z"/>
	</g>
	<path fill="none" d="M0-0.001h665.6v665.602H0V-0.001z"/>
</g>
</svg>
