<?xml version="1.0" encoding="utf-8"?>
<!-- Generator: Adobe Illustrator 16.0.4, SVG Export Plug-In . SVG Version: 6.00 Build 0)  -->
<!DOCTYPE svg PUBLIC "-//W3C//DTD SVG 1.1//EN" "http://www.w3.org/Graphics/SVG/1.1/DTD/svg11.dtd">
<svg version="1.1" id="Layer_1" xmlns="http://www.w3.org/2000/svg" xmlns:xlink="http://www.w3.org/1999/xlink" x="0px" y="0px"
	 width="665.6px" height="665.6px" viewBox="0 0 665.6 665.6" enable-background="new 0 0 665.6 665.6" xml:space="preserve">
<g>
	<path fill="#FFFFFF" d="M82.902,595.061c0-179.932,0-359.864,0-539.898c179.851,0,359.741,0,539.796,0
		c0,179.898,0,359.898,0,539.898C442.858,595.061,262.899,595.061,82.902,595.061z M300.741,207.933c-2.294,0-4.099,0-5.902,0
		c-52.651,0-105.302-0.002-157.952,0.001c-9.85,0.001-11.615,1.781-11.593,11.664c0.158,70.812,0.316,141.622,0.476,212.434
		c0.002,1.166-0.032,2.335,0.031,3.498c0.207,3.828,2.236,6.228,5.954,6.963c1.937,0.383,3.964,0.411,5.951,0.411
		c66.98,0.02,133.958,0.017,200.939,0.017c1.871,0,3.742,0,6.713,0c-6.83,7.137-12.681,13.25-18.76,19.602
		c3.62,3.36,7.004,6.502,10.619,9.857c12.07-12.448,23.869-24.615,35.902-37.024c-11.918-13.722-23.647-27.226-35.547-40.925
		c-3.938,3.574-7.361,6.682-10.908,9.9c6.715,7.776,13.182,15.264,20.141,23.323c-69.209,0-137.4,0-205.664,0
		c0-68.502,0-136.695,0-205.502c53.402,0,106.431,0,159.599,0C300.741,217.247,300.741,212.957,300.741,207.933z M538.933,428.082
		c-49.893,0-99.143,0-148.491,0c0,5.163,0,9.859,0,14.845c2.077,0,3.729,0,5.382,0c48.992,0,97.985,0.004,146.978-0.003
		c9.359-0.002,11.388-2.049,11.388-11.416c0.002-70.656,0.002-141.312,0-211.969c0-9.907-1.69-11.601-11.582-11.602
		c-63.823-0.002-127.647-0.001-191.471-0.001c-1.879,0-3.758,0-6.726,0c7.466-8.671,14.052-16.319,20.79-24.145
		c-4.012-3.403-7.644-6.484-11.461-9.722c-11.983,13.819-23.619,27.236-35.438,40.866c12.154,12.53,23.953,24.695,35.92,37.031
		c3.812-3.472,7.309-6.657,12.438-11.329c-6.72-6.314-12.917-12.139-19.098-17.945c63.69,0,127.418,0,191.37,0
		C538.933,291.129,538.933,359.225,538.933,428.082z M508.248,288.282c-112.726,0-224.929,0-337.188,0c0,4.931,0,9.512,0,14.319
		c112.487,0,224.679,0,337.188,0C508.248,297.742,508.248,293.167,508.248,288.282z M505.297,373.371
		c-1.991,1.183-4.041,1.847-5.276,3.235c-3.851,4.332-8.264,4.51-13.491,3.154c-2.897-0.751-6.175,0.092-9.181-0.399
		c-4.364-0.714-8.647-1.947-12.946-3.033c-2.029-0.514-4.015-1.201-6.212-1.868c0.532-2.586,1.09-4.666,1.372-6.782
		c1.092-8.198,2.095-16.535-5.034-22.782c-6.132-5.373-13.471-6.5-21.064-3.888c-8.264,2.842-11.852,9.831-12.402,17.783
		c-0.577,8.33,0.35,16.765,0.641,25.798c-10.031,2.709-21.125,3.12-32.445,0.68c-1.443,4.841-2.75,9.221-4.489,15.054
		c9.888,0.451,18.981,1.574,27.987,1.075c8.702-0.482,17.271-3.078,25.978-3.907c6.349-0.604,12.782,0.073,13.786-7.665
		c5.247,0.764,9.655,1.336,14.032,2.084c1.423,0.244,2.899,0.73,4.123,1.479c6.763,4.137,24.622,4.614,31.39,0.535
		c2.55-1.537,4.935-3.436,7.099-5.481c0.801-0.758,1.339-2.62,0.984-3.622C508.827,381.084,507.089,377.498,505.297,373.371z
		 M170.97,259.132c27.553,0,54.587,0,81.832,0c0-4.909,0-9.479,0-14.158c-27.439,0-54.591,0-81.832,0
		C170.97,249.848,170.97,254.294,170.97,259.132z"/>
	<path fill-rule="evenodd" clip-rule="evenodd" d="M297.741,207.933c0,5.023,0,9.313,0,14.219c-53.168,0-106.197,0-159.599,0
		c0,68.807,0,137,0,205.502c68.263,0,136.455,0,205.664,0c-6.959-8.06-13.426-15.547-20.141-23.323
		c3.547-3.219,6.971-6.326,10.908-9.9c11.899,13.699,23.629,27.203,35.547,40.925c-12.033,12.409-23.832,24.576-35.902,37.024
		c-3.615-3.355-6.999-6.497-10.619-9.857c6.079-6.352,11.93-12.465,18.76-19.602c-2.971,0-4.842,0-6.713,0
		c-66.98,0-133.959,0.003-200.939-0.017c-1.987,0-4.015-0.028-5.951-0.411c-3.718-0.735-5.747-3.135-5.954-6.963
		c-0.063-1.163-0.029-2.332-0.031-3.498c-0.16-70.812-0.318-141.622-0.476-212.434c-0.022-9.883,1.743-11.663,11.593-11.664
		c52.65-0.003,105.301-0.001,157.952-0.001C293.643,207.933,295.447,207.933,297.741,207.933z"/>
	<path fill-rule="evenodd" clip-rule="evenodd" d="M535.933,428.082c0-68.856,0-136.952,0-205.389c-63.952,0-127.68,0-191.37,0
		c6.181,5.807,12.378,11.631,19.098,17.945c-5.13,4.672-8.626,7.857-12.438,11.329c-11.967-12.336-23.766-24.501-35.92-37.031
		c11.818-13.63,23.454-27.047,35.438-40.866c3.817,3.237,7.449,6.318,11.461,9.722c-6.738,7.825-13.324,15.474-20.79,24.145
		c2.968,0,4.847,0,6.726,0c63.823,0,127.647-0.001,191.471,0.001c9.892,0.001,11.582,1.694,11.582,11.602
		c0.002,70.656,0.002,141.312,0,211.969c0,9.367-2.028,11.414-11.388,11.416c-48.992,0.007-97.985,0.003-146.978,0.003
		c-1.652,0-3.305,0-5.382,0c0-4.985,0-9.682,0-14.845C436.79,428.082,486.04,428.082,535.933,428.082z"/>
	<path fill-rule="evenodd" clip-rule="evenodd" d="M505.248,288.282c0,4.886,0,9.46,0,14.319c-112.509,0-224.7,0-337.188,0
		c0-4.808,0-9.389,0-14.319C280.319,288.282,392.522,288.282,505.248,288.282z"/>
	<path fill-rule="evenodd" clip-rule="evenodd" d="M502.297,373.371c1.792,4.127,3.53,7.714,4.85,11.448
		c0.354,1.002-0.184,2.864-0.984,3.622c-2.164,2.046-4.549,3.944-7.099,5.481c-6.768,4.079-24.627,3.602-31.39-0.535
		c-1.224-0.748-2.7-1.234-4.123-1.479c-4.377-0.748-8.785-1.32-14.032-2.084c-1.004,7.738-7.438,7.061-13.786,7.665
		c-8.707,0.829-17.275,3.425-25.978,3.907c-9.006,0.499-18.1-0.624-27.987-1.075c1.739-5.833,3.046-10.213,4.489-15.054
		c11.32,2.44,22.414,2.029,32.445-0.68c-0.291-9.033-1.218-17.468-0.641-25.798c0.551-7.952,4.139-14.941,12.402-17.783
		c7.594-2.612,14.933-1.485,21.064,3.888c7.129,6.247,6.126,14.584,5.034,22.782c-0.282,2.116-0.84,4.196-1.372,6.782
		c2.197,0.667,4.183,1.354,6.212,1.868c4.299,1.086,8.582,2.319,12.946,3.033c3.006,0.491,6.283-0.352,9.181,0.399
		c5.228,1.355,9.641,1.178,13.491-3.154C498.256,375.217,500.306,374.553,502.297,373.371z M435.277,378.32
		c6.894-4.895,7.229-11.69,7.482-18.259c0.063-1.641-1.8-4.157-3.405-4.885c-2.862-1.295-4.513,0.902-5.361,3.57
		C431.931,365.231,433.031,371.495,435.277,378.32z"/>
	<path fill-rule="evenodd" clip-rule="evenodd" d="M167.97,259.132c0-4.838,0-9.284,0-14.158c27.241,0,54.393,0,81.832,0
		c0,4.68,0,9.249,0,14.158C222.557,259.132,195.522,259.132,167.97,259.132z"/>
	<path fill-rule="evenodd" clip-rule="evenodd" fill="#FFFFFF" d="M435.277,378.32c-2.246-6.825-3.347-13.089-1.284-19.573
		c0.849-2.668,2.499-4.865,5.361-3.57c1.605,0.728,3.469,3.244,3.405,4.885C442.506,366.629,442.171,373.425,435.277,378.32z"/>
</g>
</svg>
