<?xml version="1.0" encoding="utf-8"?>
<!-- Generator: Adobe Illustrator 16.0.4, SVG Export Plug-In . SVG Version: 6.00 Build 0)  -->
<!DOCTYPE svg PUBLIC "-//W3C//DTD SVG 1.1//EN" "http://www.w3.org/Graphics/SVG/1.1/DTD/svg11.dtd">
<svg version="1.1" id="Layer_1" xmlns="http://www.w3.org/2000/svg" xmlns:xlink="http://www.w3.org/1999/xlink" x="0px" y="0px"
	 width="665.6px" height="665.6px" viewBox="0 0 665.6 665.6" enable-background="new 0 0 665.6 665.6" xml:space="preserve">
<g>
	<path fill="none" d="M0,0h665.6v665.599H0V0z"/>
	<g>
		<path d="M272.97,314.038l-0.075-9.075l-7.306-0.182c-9.743-0.257-17.67-8.35-17.67-18.062v-68.692
			c0-40.285,40.192-74.321,87.768-74.321c47.56,0,87.754,34.036,87.754,74.32v68.693c0,9.71-7.927,17.805-17.668,18.062
			l-7.367,0.182v9.136c0,32.236-28.137,58.451-62.719,58.451C301.092,372.55,272.97,346.335,272.97,314.038 M90.762,485.067
			l5.204,65.17h15.171l-5.265-65.744c0-27.547,15.612-50.873,39.785-59.436l13.857-4.916l-12.057-8.428
			c-7.686-5.354-12.086-13.416-12.086-22.1l-0.017-4.508l-3.933-2.132c-4.371-2.392-9.076-6.461-9.47-8.05v-36.834
			c0-19.695,19.938-36.335,43.551-36.335c23.6,0,43.537,16.64,43.537,36.335l0.015,36.652c-0.409,1.771-5.098,5.84-9.485,8.23
			l-3.947,2.148v4.492c0,8.684-4.402,16.745-12.086,22.1l-12.058,8.428l13.857,4.916c9.65,3.42,18.105,9.59,24.87,17.746
			c-4.842,14.656-7.7,30.389-7.688,47.059l5.886,60.373h15.188l-5.974-61.084c0-11.98,1.858-23.357,4.749-34.232l3.918-10.467
			c12.343-33.07,36.457-57.199,66.635-68.98c12.285,7.67,26.957,12.205,42.765,12.205c15.794,0,30.467-4.536,42.765-12.221
			c30.181,11.783,54.277,35.926,66.62,68.996l2.86,7.654c3.312,11.465,5.22,23.629,5.22,36.334l-6.022,61.797h15.188l5.931-61.086
			c0-16.215-2.737-31.6-7.441-45.955c6.822-8.352,15.399-14.66,25.217-18.139l13.855-4.916l-12.057-8.428
			c-7.684-5.354-12.086-13.416-12.086-23.053v-7.396l-7.383-0.168c-3.328-0.075-6.036-2.844-6.036-6.17v-36.836
			c0-19.695,19.939-36.335,43.552-36.335c23.6,0,43.537,16.64,43.537,36.335v36.834c0,3.328-2.708,6.098-6.036,6.172l-7.383,1.135
			v7.383c0,8.684-4.402,16.745-12.086,22.1l-12.056,8.428l13.856,4.916c24.173,8.562,39.799,31.902,39.829,58.846l-5.294,66.334
			h15.158l5.233-65.744c0-29.24-15.263-55.502-38.969-68.754c4.856-5.945,7.956-13.039,9.031-20.891
			c8.063-3.055,13.842-10.893,13.842-19.924v-36.834c0-27.911-26.866-51.463-58.664-51.463c-31.811,0-58.678,23.553-58.678,51.463
			v36.834c0,9,5.733,16.808,13.75,19.894c0.984,7.683,4.13,14.854,9.108,20.921c-5.568,3.117-10.682,7.004-15.325,11.527
			c-13.07-28.032-35.05-50.193-62.127-63.443c11.768-12.027,19.588-27.564,20.769-44.915c14.417-3.645,25.202-16.822,25.202-32.19
			v-68.692c0-48.484-47.121-89.448-102.881-89.448c-55.773,0-102.895,40.963-102.895,89.446v68.694
			c0,15.37,10.8,28.545,25.217,32.19c1.18,17.29,8.939,32.766,20.634,44.778c-27.123,13.145-49.179,35.201-62.354,63.277
			c-4.554-4.387-9.545-8.184-14.977-11.225c5.159-6.248,8.32-13.72,9.197-21.693c5.49-3.613,13.66-10.422,13.66-19.119v-36.836
			c0-27.91-26.866-51.463-58.664-51.463c-31.812,0-58.678,23.553-58.678,51.463v36.834c0,8.697,8.168,15.506,13.659,19.121
			c0.877,7.974,4.038,15.445,9.197,21.693c-23.688,13.266-38.938,39.604-38.922,69.33"/>
		<path d="M394.446,238.403v30.164h14.6v-35.338l-37.335-46.063l-5.688,6.672c-28.288,33.052-100.324,42.265-101.05,42.356
			l-6.399,0.771v31.602h14.582v-18.834c18.048-2.935,69.208-13.327,97.935-40.148L394.446,238.403L394.446,238.403z"/>
	</g>
</g>
</svg>
