<?xml version="1.0" encoding="utf-8"?>
<!-- Generator: Adobe Illustrator 16.0.4, SVG Export Plug-In . SVG Version: 6.00 Build 0)  -->
<!DOCTYPE svg PUBLIC "-//W3C//DTD SVG 1.1//EN" "http://www.w3.org/Graphics/SVG/1.1/DTD/svg11.dtd">
<svg version="1.1" id="Layer_1" xmlns="http://www.w3.org/2000/svg" xmlns:xlink="http://www.w3.org/1999/xlink" x="0px" y="0px"
	 width="665.6px" height="665.6px" viewBox="0 0 665.6 665.6" enable-background="new 0 0 665.6 665.6" xml:space="preserve">
<g>
	<path d="M180.274,430.493c0-2.524,0-4.155,0-5.785c0-32.329-0.036-64.658,0.053-96.986c0.009-3.334-0.571-5.131-4.252-6.456
		c-7.012-2.525-10.777-8.1-10.941-15.739c-0.092-4.29-0.017-8.584-0.017-13.319c-13.086,0-25.677,0-38.938,0
		c0-4.373,0-8.306,0-12.239c0-11.999,0.07-23.998-0.052-35.995c-0.028-2.772,0.639-4.475,3.279-5.916
		c65.888-35.969,131.728-72.027,197.538-108.141c2.454-1.347,4.318-1.397,6.824-0.056c67.349,36.058,134.748,72.019,202.092,108.085
		c1.528,0.818,3.559,2.648,3.579,4.033c0.249,16.47,0.16,32.945,0.16,49.989c-12.939,0-25.515,0-38.809,0
		c0,4.484,0.046,8.42-0.01,12.355c-0.121,8.709-4.203,14.369-12.156,17.685c-1.387,0.578-3.1,2.587-3.104,3.941
		c-0.147,34.16-0.088,68.32-0.052,102.482c0,0.31,0.175,0.619,0.462,1.575c9.675,0,19.558,0,29.96,0c0,15.535,0,30.435,0,45.847
		c10.249,0,19.99,0,30.184,0c0,20.532,0,40.553,0,60.866c-142.083,0-284.152,0-426.548,0c0-20.078,0-40.118,0-60.577
		c9.984,0,19.76,0,30.135,0c0-15.312,0-30.227,0-45.649C160,430.493,169.755,430.493,180.274,430.493z M141.252,276.694
		c128.023,0,255.389,0,383.19,0c0-7.92-0.181-15.556,0.081-23.176c0.12-3.497-1.123-5.251-4.2-6.889
		c-61.988-32.98-123.922-66.066-185.805-99.244c-3.044-1.633-5.264-1.502-8.217,0.129c-30.592,16.889-61.266,33.631-91.917,50.413
		c-29.774,16.303-59.565,32.575-89.28,48.986c-1.611,0.89-3.613,2.889-3.682,4.448C141.06,259.654,141.252,267.969,141.252,276.694z
		 M531.145,491.596c-132.624,0-264.614,0-396.461,0c0,10.331,0,20.232,0,29.968c132.422,0,264.435,0,396.461,0
		C531.145,511.392,531.145,501.604,531.145,491.596z M165.222,475.786c111.928,0,223.594,0,335.804,0c0-5.22,0-10.174,0-15.128
		c0-4.921,0-9.842,0-14.825c-112.384,0-224.036,0-335.804,0C165.222,456.002,165.222,465.762,165.222,475.786z M301.943,430.001
		c0.212-0.925,0.349-1.243,0.35-1.562c0.028-34.141,0.083-68.278-0.064-102.417c-0.006-1.38-1.619-3.438-2.978-4.014
		c-8.001-3.394-12.017-9.025-12.06-17.701c-0.02-3.941-0.003-7.883-0.003-11.899c-10.5,0-20.385,0-30.759,0
		c0,4.455,0.051,8.585-0.011,12.714c-0.115,7.72-4.25,14.15-11.44,16.431c-3.348,1.062-3.824,2.679-3.816,5.685
		c0.087,32.808,0.051,65.615,0.066,98.423c0,1.438,0.173,2.877,0.268,4.341C261.875,430.001,281.808,430.001,301.943,430.001z
		 M378.562,292.33c0,4.529,0.08,8.817-0.019,13.102c-0.18,7.834-4.071,13.428-11.286,16.025c-3.439,1.238-4.037,2.884-4.027,6.081
		c0.099,32.461,0.058,64.922,0.07,97.383c0,1.615,0.134,3.229,0.211,4.979c20.438,0,40.477,0,60.51,0
		c0.193-0.791,0.408-1.258,0.408-1.727c0.028-34.126,0.079-68.251-0.083-102.376c-0.007-1.326-1.799-3.265-3.206-3.86
		c-7.627-3.226-11.816-9.069-11.892-17.347c-0.035-4.08-0.006-8.16-0.006-12.262C398.703,292.33,388.951,292.33,378.562,292.33z
		 M195.719,323.393c0,35.886,0,71.141,0,106.49c10.24,0,20.135,0,30.013,0c0-35.729,0-71.098,0-106.49
		C215.547,323.393,205.778,323.393,195.719,323.393z M347.932,430.008c0-35.867,0-71.111,0-106.541c-10.148,0-20.022,0-30.019,0
		c0,35.691,0,71.04,0,106.541C328.101,430.008,337.867,430.008,347.932,430.008z M440.067,323.394c0,35.633,0,70.995,0,106.418
		c10.232,0,20.097,0,29.902,0c0-35.687,0-70.943,0-106.418C459.911,323.394,450.163,323.394,440.067,323.394z M240.872,292.456
		c-20.342,0-40.392,0-60.682,0c0,3.54,0.219,6.716-0.053,9.849c-0.379,4.364,1.311,5.87,5.7,5.806
		c13.993-0.207,27.993,0.084,41.986-0.119c15.679-0.228,13.388,3.212,13.414-14.279C241.235,293.398,241.06,293.083,240.872,292.456
		z M302.265,292.334c0,4.164-0.366,8.015,0.181,11.731c0.217,1.474,2.448,3.77,3.789,3.788c17.815,0.252,35.636,0.228,53.452,0.031
		c1.238-0.014,3.392-1.83,3.514-2.979c0.435-4.067,0.17-8.208,0.17-12.572C342.902,292.334,322.981,292.334,302.265,292.334z
		 M424.362,292.349c0,4.212-0.32,8.203,0.177,12.09c0.171,1.329,2.377,3.413,3.676,3.43c17.813,0.227,35.634,0.214,53.449,0.025
		c1.288-0.014,3.546-1.746,3.661-2.855c0.438-4.185,0.175-8.441,0.175-12.689C464.727,292.349,444.816,292.349,424.362,292.349z"/>
</g>
</svg>
