<?xml version="1.0" encoding="utf-8"?>
<!-- Generator: Adobe Illustrator 16.0.4, SVG Export Plug-In . SVG Version: 6.00 Build 0)  -->
<!DOCTYPE svg PUBLIC "-//W3C//DTD SVG 1.1//EN" "http://www.w3.org/Graphics/SVG/1.1/DTD/svg11.dtd">
<svg version="1.1" id="Layer_1" xmlns="http://www.w3.org/2000/svg" xmlns:xlink="http://www.w3.org/1999/xlink" x="0px" y="0px"
	 width="665.6px" height="665.6px" viewBox="0 0 665.6 665.6" enable-background="new 0 0 665.6 665.6" xml:space="preserve">
<g>
	<path d="M506.294,501.582H159.306c-12.828,0-22.842-10.377-22.842-22.736V371.533c6.064,4.417,13.478,7.11,21.54,7.11h145.403
		v3.691c0,12.797,10.422,23.205,23.22,23.205h12.344c12.797,0,23.205-10.408,23.205-23.205v-3.692h145.403
		c8.077,0,15.49-2.692,21.556-7.124v107.328C529.135,491.612,518.713,501.582,506.294,501.582L506.294,501.582z M347.05,353.517
		v28.816c0,4.461-3.615,8.078-8.076,8.078h-0.001h-12.344c-4.462,0-8.093-3.615-8.093-8.078v-28.816
		c0.005-4.468,3.625-8.088,8.093-8.094h12.344C343.435,345.423,347.05,349.054,347.05,353.517z M159.306,229.049h346.988
		c12.828,0,22.842,10.378,22.842,22.75v90.993c-0.468,11.496-9.922,20.724-21.556,20.724H362.176v-10
		c0-12.796-10.406-23.22-23.205-23.22h-12.343c-12.798,0-23.22,10.424-23.22,23.22v10H158.002c-11.617,0-21.04-9.197-21.541-20.649
		v-90.672C136.461,239.427,146.476,229.049,159.306,229.049L159.306,229.049z M248.253,194.333c0-16.762,13.63-30.724,30.845-30.724
		h106.996c16.821,0,30.843,13.57,30.843,30.724v19.559H248.253V194.333L248.253,194.333z M506.294,213.892h-73.73v-19.559
		c0-25.142-20.422-45.882-46.078-45.882H279.098c-25.232,0-46.062,20.346-46.062,45.882v19.559h-73.73
		c-21.238,0-38.469,17.154-38.469,38.303v226.649c0,21.135,17.229,38.305,38.47,38.305h346.988c21.239,0,38.47-17.155,38.47-38.303
		V252.194C544.764,231.045,527.533,213.892,506.294,213.892L506.294,213.892z"/>
	<path fill="none" d="M0,0h665.6v665.6H0V0z"/>
</g>
</svg>
