<?xml version="1.0" encoding="utf-8"?>
<!-- Generator: Adobe Illustrator 16.0.4, SVG Export Plug-In . SVG Version: 6.00 Build 0)  -->
<!DOCTYPE svg PUBLIC "-//W3C//DTD SVG 1.1//EN" "http://www.w3.org/Graphics/SVG/1.1/DTD/svg11.dtd">
<svg version="1.1" id="Layer_1" xmlns="http://www.w3.org/2000/svg" xmlns:xlink="http://www.w3.org/1999/xlink" x="0px" y="0px"
	 width="665.6px" height="665.6px" viewBox="0 0 665.6 665.6" enable-background="new 0 0 665.6 665.6" xml:space="preserve">
<g>
	<path fill="none" d="M0,0h665.6v665.6H0V0z"/>
	<g>
		<path d="M303.24,205.878l-13.254,1.8l2.041,14.992l13.302-1.8c0.358-0.061,36.047-4.947,68.434,5.4
			c4.78,2.088,10.665,4.81,11.497,5.28l9.394-11.845c-0.681-0.545-2.27-1.815-15.55-7.563
			C342.616,200.432,304.798,205.668,303.24,205.878L303.24,205.878z"/>
		<path d="M558.837,257.812c-9.863-4.463-16.155-10.513-17.729-17.048c-1.286-5.354,0.969-9.62,3.072-12.239
			c2.995-3.692,7.639-5.96,12.449-6.065h0.348c4.1,0,7.776,1.588,10.333,4.477c2.858,3.268,3.932,7.458,3.296,12.767
			c-0.438,3.616-2.934,9.53-11.768,18.11L558.837,257.812z M469.421,413.773l-3.193,3.069l13.645,51.525
			c2.846,5.854,0.639,12.964-4.915,15.883l-21.358,11.192c-2.542,1.334-5.4,1.59-8.109,0.683c-2.844-0.923-5.158-2.996-6.535-5.81
			l-35.318-43.051l-5.236,2.358c-27.577,12.358-41.75,15.203-75.878,15.203c-26.186,0-34.065,0-56.955-7.745l-4.675-1.573
			l-30.118,33.021l-1.209,1.785c-1.36,2.813-3.69,4.889-6.535,5.811c-2.671,0.895-5.593,0.648-8.076-0.682l-21.375-11.193
			c-5.568-2.92-7.762-10.03-4.934-15.883l6.369-38.53l-3.601-2.735c-10.438-7.93-44.596-49.288-55.85-63.462l-40.68-22.552
			c-2.585-1.899-4.112-4.915-4.114-8.122v-34.702c0-5.551,4.507-10.075,10.09-10.075h40.692l2.028-4.418
			c9.332-20.376,23.885-38.393,42.052-53.398h5.9v-64.762c0-2.39,1.026-4.568,2.753-5.839c0.877-0.635,2.238-1.33,4.1-0.71
			c19.423,6.352,44.066,23.34,51.1,68.178l14.945-2.36c-1.905-12.147-5.158-22.267-9.06-31.132
			c21.115-6.46,43.747-10.15,67.148-10.15c108.704,0,190.694,60.706,190.694,141.213
			C513.214,357.985,500.536,383.761,469.421,413.773L469.421,413.773z M578.669,216.954c-5.567-6.309-13.75-9.5-22.373-9.621
			c-9.299,0.182-18.039,4.461-23.888,11.692c-6.006,7.444-8.123,16.414-6.02,25.263c2.27,9.44,9.243,17.805,19.908,24.053
			c-8.457,6.307-17.474,11.83-24.645,15.913C499.266,216.107,421.21,168.471,322.52,168.471c-25.929,0-50.979,4.295-74.319,11.753
			c-13.844-21.662-32.51-31.42-45.123-35.548c-6.054-1.952-12.48-0.923-17.671,2.858c-5.643,4.1-9.002,10.846-9.002,18.077v53.037
			c-18.74,15.414-34.156,33.673-44.487,54.413H100.86c-13.9,0-25.217,11.3-25.217,25.202v34.702c0,7.987,3.843,15.58,11.182,20.875
			l37.862,20.437c6.065,7.533,38.543,47.714,54.034,61.872l-4.176,26.715c-5.582,12.904-0.377,28.304,11.997,34.777l21.374,11.209
			c3.647,1.937,7.715,2.948,11.845,2.95c2.678,0,5.37-0.424,7.987-1.288c6.397-2.117,11.646-6.533,14.885-12.539l22.797-25.006
			c20.8,6.674,30.633,6.989,57.09,6.989c33.689,0,50.632-2.995,76.77-14.204l26.521,32.055c3.222,6.081,8.501,10.573,14.946,12.707
			c6.654,2.163,13.688,1.587,19.859-1.664l21.359-11.209c12.739-6.656,17.896-22.75,12.012-34.507l-10.891-41.584
			c31.675-31.541,45.245-60.691,45.245-96.739c0-8.714-1.074-17.154-2.708-25.4c10.271-5.687,26.004-15.171,38.694-26.155
			c13.102-11.33,20.074-21.706,21.301-31.72C586.794,231.974,584.371,223.458,578.669,216.954L578.669,216.954z"/>
		<path d="M168.381,301.278c0,4.177,3.386,7.563,7.562,7.563c4.178,0,7.563-3.386,7.563-7.563v-22.127
			c0-4.177-3.387-7.563-7.563-7.563c-4.178,0-7.562,3.386-7.562,7.563l0,0V301.278L168.381,301.278z"/>
	</g>
</g>
</svg>
