<?xml version="1.0" encoding="utf-8"?>
<!-- Generator: Adobe Illustrator 16.0.4, SVG Export Plug-In . SVG Version: 6.00 Build 0)  -->
<!DOCTYPE svg PUBLIC "-//W3C//DTD SVG 1.1//EN" "http://www.w3.org/Graphics/SVG/1.1/DTD/svg11.dtd">
<svg version="1.1" id="Layer_1" xmlns="http://www.w3.org/2000/svg" xmlns:xlink="http://www.w3.org/1999/xlink" x="0px" y="0px"
	 width="665.6px" height="665.6px" viewBox="0 0 665.6 665.6" enable-background="new 0 0 665.6 665.6" xml:space="preserve">
<g>
	<path fill="none" d="M0,0h665.6v665.6H0V0z"/>
	<path d="M340.675,123.435l-0.895,0.59l-0.315-0.151L162.87,241.186v172.161l27.03-17.772v146.598h300.943V395.574l27.018,17.772
		V241.186l-172.815-114.44L340.675,123.435L340.675,123.435z M347.935,283.511v-136.72l154.798,102.517v136.009L347.935,283.511
		L347.935,283.511z M177.997,249.31l154.812-102.519v136.721L177.996,385.317L177.997,249.31L177.997,249.31z M205.015,385.636
		l135.343-88.979l135.36,88.979v141.409h-87.572V396.316h-95.59v130.729h-87.541V385.636L205.015,385.636z M307.684,411.443h65.334
		v45.003h-26.745v15.128h26.745v54.58h-65.333V411.441L307.684,411.443z"/>
</g>
</svg>
