<?xml version="1.0" encoding="utf-8"?>
<!-- Generator: Adobe Illustrator 16.0.4, SVG Export Plug-In . SVG Version: 6.00 Build 0)  -->
<!DOCTYPE svg PUBLIC "-//W3C//DTD SVG 1.1//EN" "http://www.w3.org/Graphics/SVG/1.1/DTD/svg11.dtd">
<svg version="1.1" id="Layer_1" xmlns="http://www.w3.org/2000/svg" xmlns:xlink="http://www.w3.org/1999/xlink" x="0px" y="0px"
	 width="665.6px" height="665.6px" viewBox="0 0 665.6 665.6" enable-background="new 0 0 665.6 665.6" xml:space="preserve">
<g>
	<path fill="none" d="M43.3,55.3h580.76v553.24H43.3V55.3z"/>
	<g>
		<path fill="none" stroke="#000000" stroke-width="8" d="M312.506,409.146V244.322c0-12.409-10.563-22.472-23.596-22.472l0,0
			H115.895c-13.033,0-23.595,10.063-23.595,22.472v164.824c0,12.409,10.562,22.472,23.595,22.472l0,0H288.91
			C301.943,431.617,312.506,421.555,312.506,409.146L312.506,409.146z M359.691,244.322v164.824
			c0,12.409,10.563,22.472,23.597,22.472l0,0h173.016c13.032,0,23.596-10.062,23.596-22.472l0,0V244.322
			c0-12.409-10.563-22.472-23.596-22.472l0,0H383.288C370.255,221.85,359.691,231.913,359.691,244.322L359.691,244.322z"/>
		<path fill="none" stroke="#000000" stroke-width="8" stroke-linecap="square" d="M218.135,326.73h235.934"/>
		<path fill="none" stroke="#000000" stroke-width="8" d="M436.925,295.384l33.379,31.785l-33.379,31.775 M235.711,358.764
			l-33.355-31.792l33.355-31.763"/>
	</g>
</g>
</svg>
