<?xml version="1.0" encoding="utf-8"?>
<!-- Generator: Adobe Illustrator 16.0.4, SVG Export Plug-In . SVG Version: 6.00 Build 0)  -->
<!DOCTYPE svg PUBLIC "-//W3C//DTD SVG 1.1//EN" "http://www.w3.org/Graphics/SVG/1.1/DTD/svg11.dtd">
<svg version="1.1" id="Layer_1" xmlns="http://www.w3.org/2000/svg" xmlns:xlink="http://www.w3.org/1999/xlink" x="0px" y="0px"
	 width="665.6px" height="665.6px" viewBox="0 0 665.6 665.6" enable-background="new 0 0 665.6 665.6" xml:space="preserve">
<g>
	<path d="M526.455,396.474h-9.781c-0.312-30.965-25.542-56.073-56.574-56.073c-31.02,0-56.247,25.108-56.561,56.073H238.721
		c-0.311-30.965-25.542-56.073-56.574-56.073c-30.243,0-54.82,23.911-56.342,53.802c-18.165-5.719-31.468-22.513-31.468-42.553
		v-45.08c4.825,0.028,20.028,0.043,41.915,0.043c33.343,0,81.872-0.028,131.572-0.042c84.291-0.054,171.746-0.081,194.217-0.027
		c0.038,0.001,0.075,0.011,0.109,0.027c8.521,0.068,18.6,0.054,29.278,0c11.575-0.054,23.846-0.108,35.435,0
		c24.484,0.203,44.399,20.435,44.399,45.08C571.263,376.379,551.156,396.474,526.455,396.474 M460.1,440.069
		c-23.723,0-43.028-19.305-43.028-43.039c0-23.736,19.306-43.041,43.028-43.041c23.732,0,43.043,19.305,43.043,43.041
		c0,23.734-19.311,43.041-43.043,43.041 M182.147,440.071c-23.734,0-43.039-19.307-43.039-43.041
		c0-23.736,19.305-43.041,43.039-43.041c23.736,0,43.043,19.305,43.043,43.041C225.19,420.765,205.883,440.071,182.147,440.071
		 M150.408,225.528h195.088c12.972-0.004,25.308,5.617,33.816,15.408l39.388,45.296c2.173,2.5,4.675,4.619,7.188,6.698
		c-38.816,0-99.196,0.027-158.078,0.055c-82.728,0.026-161.965,0.068-173.474,0v-11.386
		C94.336,250.688,119.499,225.528,150.408,225.528 M526.972,292.984c-11.591-0.096-23.969-0.041-35.597,0
		c-8.913,0.026-17.216,0.041-24.701,0.013v-0.013c-0.926-0.014-2.554-0.014-4.512-0.027c-12.579-0.151-24.686-5.828-33.219-15.652
		l-39.387-45.284c-11.085-12.759-27.158-20.085-44.061-20.081H150.408c-38.407,0-69.658,31.25-69.658,69.659v70.05
		c0,27.908,19.742,51.112,45.95,56.848c5.326,25.744,28.165,45.162,55.446,45.162c26.727,0,49.047-18.67,54.972-43.602h168.023
		c5.924,24.934,28.248,43.6,54.958,43.6c26.724,0,49.047-18.668,54.971-43.598h11.384c32.201,0,58.396-26.208,58.396-58.41
		C584.85,319.574,558.887,293.243,526.972,292.984"/>
	<path d="M366.669,334.564h-31.523c-3.749-0.003-6.79,3.034-6.793,6.783c0,0.003,0,0.007,0,0.01
		c-0.003,3.749,3.034,6.79,6.783,6.793c0.004,0,0.007,0,0.011,0h31.522c3.752,0,6.793-3.042,6.793-6.794
		C373.462,337.605,370.421,334.563,366.669,334.564"/>
</g>
</svg>
