<?xml version="1.0" encoding="utf-8"?>
<!-- Generator: Adobe Illustrator 16.0.4, SVG Export Plug-In . SVG Version: 6.00 Build 0)  -->
<!DOCTYPE svg PUBLIC "-//W3C//DTD SVG 1.1//EN" "http://www.w3.org/Graphics/SVG/1.1/DTD/svg11.dtd">
<svg version="1.1" id="Layer_1" xmlns="http://www.w3.org/2000/svg" xmlns:xlink="http://www.w3.org/1999/xlink" x="0px" y="0px"
	 width="665.6px" height="665.6px" viewBox="0 0 665.6 665.6" enable-background="new 0 0 665.6 665.6" xml:space="preserve">
<g>
	<path d="M529.695,377.058c-3.808-1.512-7.387-2.795-10.74-3.85c-3.353-1.053-7.074-2.016-11.166-2.887V157.48h2.655
		c10.632,0,19.25,8.618,19.25,19.25L529.695,377.058L529.695,377.058z M468.283,370.252c-4.342,1.026-8.109,2.14-11.302,3.34
		c-3.191,1.199-6.728,2.86-10.604,4.979V157.48h21.906V370.252z M402.715,371.644c-9.292-2.926-19.634-3.96-31.029-3.109
		c-11.393,0.853-21.735,3.785-31.03,8.798V157.48h62.062v214.164H402.715z M297.531,278.194l-19.689,20.625v207.746h19.689V278.194z
		 M297.531,157.477h-19.689v11.688l19.689,20.202V157.477z M241.698,157.477v49.215h-62.062v-29.965
		c0-10.633,8.619-19.25,19.25-19.25h42.81H241.698z M241.698,256.193v250.372h-42.811c-10.632,0-19.25-8.619-19.25-19.25V256.193
		H241.698L241.698,256.193z M420.293,492.432v14.143h-79.709v-12.278l43.039-32.472c11.962-9.016,17.095-16.938,17.095-27.194
		c0-11.19-7.152-20.358-22.221-20.358c-16.94,0-25.175,10.258-25.333,24.551l-14.76-2.637c0.467-22.064,14.761-36.831,40.4-36.831
		c26.105,0,38.38,16.165,38.38,34.034c0,13.52-4.504,24.702-21.285,36.98l-29.99,22.063L420.293,492.432L420.293,492.432z
		 M455.717,464.928c2.952,16.939,13.052,28.28,30.607,28.28c14.766,0,25.018-9.785,25.018-22.53
		c0-14.453-10.566-21.132-25.016-21.132C471.1,449.546,460.691,459.179,455.717,464.928 M454.785,450.477
		c5.591-5.906,16.473-14.291,33.876-14.291c24.394,0,38.688,12.894,38.688,34.491c0,22.53-17.405,37.446-41.023,37.446
		c-30.451,0-47.854-21.754-47.854-54.535c0-32.17,17.403-54.233,48.168-54.233c16.781,0,30.458,5.441,36.206,9.17l-4.973,13.21
		c-5.44-3.735-16.473-8.551-29.526-8.551c-22.062,0-32.631,15.23-33.561,37.295"/>
	<path d="M135.906,239.792H286.95l-21.093,25.597l11.013,10.47l38.398-44.209l-38.398-40.336l-11.014,10.854l21.094,21.335H135.906
		V239.792z"/>
</g>
</svg>
