<?xml version="1.0" encoding="utf-8"?>
<!-- Generator: Adobe Illustrator 16.0.4, SVG Export Plug-In . SVG Version: 6.00 Build 0)  -->
<!DOCTYPE svg PUBLIC "-//W3C//DTD SVG 1.1//EN" "http://www.w3.org/Graphics/SVG/1.1/DTD/svg11.dtd">
<svg version="1.1" id="Layer_1" xmlns="http://www.w3.org/2000/svg" xmlns:xlink="http://www.w3.org/1999/xlink" x="0px" y="0px"
	 width="665.6px" height="665.6px" viewBox="0 0 665.6 665.6" enable-background="new 0 0 665.6 665.6" xml:space="preserve">
<g>
	<path fill="none" d="M0,0h665.6v665.6H0V0z"/>
	<g>
		<path d="M406.51,304.559h-54.275v-54.05c0-1.62-1.301-2.92-2.603-2.92H311.27c-1.607-0.004-2.915,1.296-2.92,2.904
			c0,0.005,0,0.011,0,0.016v54.05h-53.958c-1.607-0.004-2.915,1.295-2.92,2.904c0,0.005,0,0.009,0,0.014v38.197
			c-0.003,1.601,1.293,2.901,2.895,2.904c0.009,0,0.018,0,0.025,0h54.291v53.399c0,1.635,1.3,2.92,2.92,2.92h38.03
			c1.635,0,2.602-1.303,2.602-2.92v-54.051h54.277c1.633,0,2.602-1.285,2.602-2.902v-37.88c0.317-1.618-0.969-2.587-2.602-2.587"/>
		<path d="M484.517,354.832c-0.182,21.753-0.5,24.053-1.09,28.213c-0.257,1.694-0.517,3.646-0.85,6.747
			c-7.486,71.942-126.234,133.588-153.206,146.703c-26.957-13.115-145.706-74.761-153.194-146.705
			c-0.333-3.1-0.59-5.051-0.847-6.747c-0.59-4.16-0.923-6.458-1.09-28.21c-0.425-50.98-0.273-135.95-0.12-173.512
			c50.101,7.64,124.21-10.452,155.25-37.862c31.058,27.41,105.148,45.502,155.267,37.863
			C484.786,218.883,484.923,303.852,484.517,354.832 M499.719,172.169l-0.046-9.47l-9.229,2.134
			c-51.023,11.83-134.875-11.587-155.446-37l-5.522-6.808h-0.21l-5.507,6.808c-20.574,25.413-104.424,48.83-155.448,37l-9.229-2.132
			l-0.044,9.47c-0.166,30.768-0.396,127.054,0.075,182.782c0.165,22.767,0.56,25.397,1.256,30.315
			c0.227,1.558,0.468,3.312,0.771,6.097c8.637,83.048,139.76,148.52,165.962,160.816l2.225,1.073l2.329-1.073
			c26.199-12.298,157.322-77.77,165.961-160.816c0.303-2.784,0.529-4.539,0.771-6.097c0.696-4.918,1.074-7.55,1.256-30.315
			C500.097,299.225,499.885,202.939,499.719,172.169"/>
	</g>
</g>
</svg>
