<?xml version="1.0" encoding="utf-8"?>
<!-- Generator: Adobe Illustrator 16.0.4, SVG Export Plug-In . SVG Version: 6.00 Build 0)  -->
<!DOCTYPE svg PUBLIC "-//W3C//DTD SVG 1.1//EN" "http://www.w3.org/Graphics/SVG/1.1/DTD/svg11.dtd">
<svg version="1.1" id="Layer_1" xmlns="http://www.w3.org/2000/svg" xmlns:xlink="http://www.w3.org/1999/xlink" x="0px" y="0px"
	 width="665.6px" height="665.6px" viewBox="0 0 665.6 665.6" enable-background="new 0 0 665.6 665.6" xml:space="preserve">
<g>
	<path fill="none" d="M0,0h665.6v665.6H0V0z"/>
	<g>
		<path d="M253.162,261.226c0,51.584-29.711,93.712-66.742,93.712c-36.608,0-66.742-42.128-66.742-93.712
			c0-2.571,0.424-5.582,0.424-9.03h132.635C253.161,255.644,253.161,258.655,253.162,261.226L253.162,261.226z M120.962,238.445
			c1.726-17.199,4.311-38.696,8.184-50.298h115.406c3.873,11.602,6.884,33.098,8.184,50.297H120.965L120.962,238.445z
			 M236.792,485.186h-41.327V368.267c40.464-5.598,72.338-52.446,72.338-107.04c0-19.772-4.311-66.197-12.057-83.397
			c-1.302-2.149-3.872-3.874-6.46-3.874H124.414c-3.025,0-5.174,1.303-6.46,3.874c-7.763,17.199-12.058,63.186-12.058,83.396
			c0,56.743,33.159,103.591,75.35,107.464v116.493h-41.344c-3.874,0-6.883,3.01-6.883,6.885c0,3.873,3.01,6.866,6.883,6.866h96.892
			c3.888,0,6.897-2.995,6.897-6.866c0-3.873-3.011-6.885-6.896-6.885h-0.003V485.186z M391.817,245.322
			c-2.587-2.573-6.882-2.573-9.469,0c-2.587,2.587-2.587,6.882,0,9.454c4.295,4.734,2.146,12.042-1.727,23.644
			c-3.872,12.464-8.604,26.654,1.727,36.972c1.286,1.284,3.01,2.148,4.733,2.148c1.725,0,3.449-0.864,4.734-2.15
			c2.587-2.586,2.587-6.881,0-9.454c-4.31-4.735-2.146-12.04,1.728-23.643c3.87-12.466,8.604-26.654-1.728-36.972 M421.961,214.801
			c-2.589-2.586-6.898-2.586-9.473,0c-2.587,2.572-2.587,6.884,0,9.456c5.158,5.158,1.287,24.93-1.724,39.558
			c-4.312,21.48-8.607,41.251,1.724,51.568c1.287,1.301,3.012,2.163,4.736,2.163c1.724,0,3.449-0.862,4.735-2.163
			c2.587-2.571,2.587-6.868,0-9.454c-5.176-5.158-1.287-24.93,1.723-39.543C427.981,244.89,432.29,225.119,421.961,214.801
			 M454.259,282.292c3.871-12.466,8.604-26.656-1.727-36.973c-2.587-2.571-6.884-2.571-9.47,0c-1.286,1.287-2.163,3.011-2.163,4.736
			c0,1.709,0.878,3.434,2.164,4.72c4.295,4.734,2.147,12.041-1.725,23.644c-3.873,12.464-8.608,26.654,1.725,36.97
			c1.285,1.287,3.01,2.148,4.734,2.148c1.724,0,3.448-0.862,4.733-2.148c1.287-1.287,2.163-3.01,2.163-4.734
			c0-1.71-0.877-3.436-2.163-4.72C448.237,301.2,450.386,293.894,454.259,282.292"/>
		<path d="M288.902,356.228h259.22c-4.732,49.012-61.565,122.938-129.608,122.938C350.485,479.166,293.638,405.239,288.902,356.228
			 M569.662,278.852c0-1.726-0.86-3.435-2.161-4.736c-2.572-2.572-6.884-2.572-9.472,0l-68.89,67.922H282.005
			c-3.873,0-6.882,3.01-6.882,6.882c0,24.067,12.494,54.595,33.159,81.249c20.238,26.216,45.214,45.124,71.475,55.021h-6.021
			c-3.874,0-6.898,3.01-6.898,6.881c0,3.856,3.024,6.868,6.897,6.868h91.716c3.874,0,7.745-3.012,7.745-6.868
			c0-3.873-3.01-6.881-6.882-6.881h-8.605c26.26-9.895,51.233-29.229,71.475-55.021c20.665-27.092,33.16-57.18,33.16-81.249
			c0-3.872-3.026-6.882-6.899-6.882h-46.923l58.981-58.452c1.301-1.301,2.161-3.01,2.161-4.734"/>
	</g>
</g>
</svg>
