<?xml version="1.0" encoding="utf-8"?>
<!-- Generator: Adobe Illustrator 16.0.4, SVG Export Plug-In . SVG Version: 6.00 Build 0)  -->
<!DOCTYPE svg PUBLIC "-//W3C//DTD SVG 1.1//EN" "http://www.w3.org/Graphics/SVG/1.1/DTD/svg11.dtd">
<svg version="1.1" id="Layer_1" xmlns="http://www.w3.org/2000/svg" xmlns:xlink="http://www.w3.org/1999/xlink" x="0px" y="0px"
	 width="665.6px" height="665.6px" viewBox="0 0 665.6 665.6" enable-background="new 0 0 665.6 665.6" xml:space="preserve">
<g>
	<path d="M178.014,285.405c-16.877-3.957-33.713-7.902-50.548-11.851c-5.669-1.33-11.368-2.545-16.997-4.027
		c-8.522-2.244-13.611-8.582-13.062-15.957c0.574-7.709,6.484-13.728,15.042-14.938c33.624-4.763,67.261-9.436,100.891-14.154
		c33.96-4.767,67.869-9.951,101.909-14.064c9.386-1.134,19.215,0.412,28.737,1.576c38.34,4.686,76.639,9.703,114.953,14.598
		c31.377,4.009,62.76,7.979,94.131,12.047c8.67,1.125,14.785,7.487,15.146,15.362c0.354,7.729-4.809,13.6-13.879,15.693
		c-4.998,1.153-10.02,2.215-16.027,3.538c6.107,3.228,6.062,8.226,6.049,13.461c-0.094,36.159,0,72.318-0.145,108.477
		c-0.012,2.826-0.863,5.924-2.227,8.4c-1.807,3.287-5.645,4.424-8.686,2.75c-2.518-1.386-5.055-4.408-5.691-7.148
		c-0.957-4.109-0.266-8.605-0.266-12.938c-0.002-30.493,0-60.986,0-91.48c0-1.806,0-3.611,0-6.047
		c-16.463-0.67-32.266-5.607-48.766-3.281c0,30.559,0,60.355,0,90.151c0,10.497-0.248,21.004,0.102,31.49
		c0.188,5.645-2.051,9.438-6.346,12.693c-15.1,11.449-32.176,18.651-50.271,23.681c-38.754,10.768-78.27,13.744-118.289,11.396
		c-28.363-1.662-56.283-5.812-83.221-15.23c-13.438-4.7-26.012-11.037-37.189-20.005c-3.787-3.039-5.473-6.541-5.45-11.564
		c0.176-38.323,0.097-76.65,0.097-114.976C178.014,290.733,178.014,288.414,178.014,285.405z M195.171,289.413
		c-0.115,1.704-0.238,2.679-0.238,3.652c-0.011,36.819-0.062,73.639,0.128,110.456c0.01,2.054,1.512,5.062,3.21,5.981
		c9.761,5.291,19.455,10.98,29.799,14.867c21.951,8.246,45.02,11.726,68.334,13.522c36.398,2.808,72.582,1.426,108.314-6.435
		c18.588-4.09,36.615-9.885,52.568-20.842c3.191-2.191,4.477-4.631,4.457-8.617c-0.164-35.651-0.096-71.306-0.096-106.958
		c0-1.74,0-3.48,0-5.308c-1.307,0.082-1.812,0.05-2.291,0.151c-42.797,9.09-85.572,18.276-128.411,27.168
		c-4.894,1.016-10.333,1.346-15.173,0.335c-18.068-3.774-35.991-8.245-53.97-12.442
		C239.789,299.808,217.771,294.682,195.171,289.413z M548.903,255.654c-0.09-0.296-0.18-0.593-0.27-0.889
		c-23.613-3.045-47.225-6.106-70.838-9.131c-43.77-5.606-87.539-11.212-131.314-16.768c-8.41-1.067-16.963-3.248-25.254-2.557
		c-16.731,1.394-33.327,4.409-49.98,6.751c-39.075,5.496-78.151,10.985-117.226,16.485c-12.335,1.736-24.667,3.499-37.001,5.249
		c1.115,1.048,2.189,1.457,3.298,1.716c66.108,15.444,132.216,30.894,198.349,46.237c2.479,0.575,5.299,0.575,7.796,0.058
		c29.167-6.044,58.306-12.229,87.447-18.401c7.746-1.641,15.477-3.366,23.211-5.054c-5.904-1.469-11.686-2.163-17.469-2.823
		c-29.949-3.419-59.904-6.785-89.838-10.33c-2.339-0.276-5.441-1.182-6.566-2.874c-1.449-2.18-2.184-5.676-1.562-8.196
		c0.928-3.77,4.564-5.198,8.361-4.833c9.946,0.959,19.874,2.098,29.803,3.217c34.258,3.862,68.5,7.841,102.771,11.577
		c13.818,1.506,27.621,4.694,41.582,0.274c5.844-1.85,12.018-2.646,18.035-3.94C531.128,259.51,540.015,257.578,548.903,255.654z"/>
</g>
</svg>
