<?xml version="1.0" encoding="utf-8"?>
<!-- Generator: Adobe Illustrator 16.0.4, SVG Export Plug-In . SVG Version: 6.00 Build 0)  -->
<!DOCTYPE svg PUBLIC "-//W3C//DTD SVG 1.1//EN" "http://www.w3.org/Graphics/SVG/1.1/DTD/svg11.dtd">
<svg version="1.1" id="Layer_1" xmlns="http://www.w3.org/2000/svg" xmlns:xlink="http://www.w3.org/1999/xlink" x="0px" y="0px"
	 width="665.6px" height="665.6px" viewBox="0 0 665.6 665.6" enable-background="new 0 0 665.6 665.6" xml:space="preserve">
<g>
	<path fill="#FFFFFF" d="M70,597.6c0-179.93,0-359.859,0-539.895c179.845,0,359.733,0,539.789,0c0,179.895,0,359.895,0,539.895
		C429.959,597.6,250.001,597.6,70,597.6z M125.486,538.276c138.142,0,275.209,0,412.218,0c0-68.871,0-137.41,0-206.569
		c-51.599,0-102.813,0-154.047,0c0-25.338,0-50.054,0-75.172c19.662,0,38.909,0,59.136,0
		c-36.127-47.585-71.696-94.436-107.67-141.818c-36.033,47.453-71.603,94.297-107.906,142.105c20.672,0,40.053,0,59.396,0
		c0,25.284,0,50.027,0,75.085c-2.493,0-4.645,0-6.796,0c-48.66,0-97.32-0.007-145.98,0.007c-8.351,0.003-8.352,0.043-8.352,8.3
		c0,63.658,0,127.316,0,190.975C125.486,533.47,125.486,535.753,125.486,538.276z"/>
	<path fill-rule="evenodd" clip-rule="evenodd" d="M125.486,538.276c0-2.522,0-4.806,0-7.088c0-63.658,0-127.316,0-190.975
		c0-8.257,0-8.297,8.352-8.3c48.66-0.014,97.32-0.007,145.98-0.007c2.151,0,4.303,0,6.796,0c0-25.058,0-49.801,0-75.085
		c-19.343,0-38.725,0-59.396,0c36.303-47.809,71.874-94.652,107.906-142.105c35.974,47.383,71.543,94.233,107.67,141.818
		c-20.227,0-39.474,0-59.136,0c0,25.118,0,49.834,0,75.172c51.233,0,102.448,0,154.047,0c0,69.159,0,137.698,0,206.569
		C400.695,538.276,263.627,538.276,125.486,538.276z M141.345,522.331c126.987,0,253.702,0,380.646,0c0-58.162,0-116.058,0-174.236
		c-126.995,0-253.696,0-380.646,0C141.345,406.303,141.345,464.196,141.345,522.331z M303.062,240.748c0,30.821,0,60.754,0,90.735
		c21.622,0,42.825,0,64.503,0c0-30.357,0-60.293,0-90.779c14.341,0,28.212,0,43.257,0c-25.582-33.692-50.461-66.461-75.699-99.701
		c-25.326,33.355-50.219,66.141-75.734,99.745c8.147,0,15.105,0,22.063,0C288.406,240.748,295.359,240.748,303.062,240.748z"/>
	<path fill-rule="evenodd" clip-rule="evenodd" fill="#FFFFFF" d="M141.345,522.331c0-58.135,0-116.027,0-174.236
		c126.951,0,253.651,0,380.646,0c0,58.179,0,116.074,0,174.236C395.047,522.331,268.332,522.331,141.345,522.331z M433.92,490.929
		c4.26,0.958,8.113,1.737,11.919,2.707c3.094,0.789,6.363,1.363,9.14,2.822c4.643,2.438,9.184,3.766,14.315,1.935
		c1.053-0.376,2.346-0.836,3.322-0.552c10.509,3.062,17.287-3.099,24.267-9.405c-2.102-4.71-4.119-9.232-6.429-14.408
		c-3.108,2.291-5.729,4.563-8.679,6.27c-1.829,1.058-4.402,2.168-6.216,1.679c-7.387-1.991-15.475-0.046-22.476-4.184
		c-1.134-0.671-2.962-0.064-4.433-0.29c-2.836-0.436-5.646-1.043-8.118-1.514c0.861-6.297,2.05-11.685,2.223-17.105
		c0.212-6.612-2.21-12.372-7.911-16.341c-13.664-9.511-30.212-2.647-33.835,13.97c-2.145,9.841-0.652,19.438,2.095,29.37
		c-12.12,2.826-23.849,3.785-35.823,0.888c-1.609,5.183-3.066,9.874-4.59,14.777c1.385,0.475,2.271,0.897,3.207,1.082
		c14.432,2.853,28.74,2.384,42.983-1.39c3.472-0.92,7.125-1.534,10.705-1.589C426.346,499.547,432.41,498.764,433.92,490.929z
		 M252,364.074c-26.685,0-52.742,0-78.772,0c0,5.309,0,10.234,0,15.277c26.37,0,52.444,0,78.772,0
		C252,374.164,252,369.246,252,364.074z"/>
	<path fill-rule="evenodd" clip-rule="evenodd" fill="#FFFFFF" d="M303.062,240.748c-7.703,0-14.656,0-21.609,0
		c-6.958,0-13.917,0-22.063,0c25.515-33.604,50.408-66.39,75.734-99.745c25.238,33.24,50.117,66.009,75.699,99.701
		c-15.045,0-28.916,0-43.257,0c0,30.486,0,60.422,0,90.779c-21.679,0-42.882,0-64.503,0
		C303.062,301.501,303.062,271.569,303.062,240.748z"/>
	<path fill-rule="evenodd" clip-rule="evenodd" d="M433.92,490.929c-1.51,7.835-7.574,8.618-14.333,8.722
		c-3.58,0.055-7.233,0.669-10.705,1.589c-14.243,3.773-28.552,4.242-42.983,1.39c-0.936-0.185-1.822-0.607-3.207-1.082
		c1.523-4.903,2.98-9.595,4.59-14.777c11.975,2.897,23.703,1.938,35.823-0.888c-2.747-9.933-4.239-19.529-2.095-29.37
		c3.623-16.617,20.171-23.48,33.835-13.97c5.701,3.969,8.123,9.729,7.911,16.341c-0.173,5.421-1.361,10.809-2.223,17.105
		c2.472,0.471,5.282,1.078,8.118,1.514c1.471,0.226,3.299-0.381,4.433,0.29c7.001,4.138,15.089,2.192,22.476,4.184
		c1.813,0.489,4.387-0.621,6.216-1.679c2.949-1.706,5.57-3.979,8.679-6.27c2.31,5.176,4.327,9.698,6.429,14.408
		c-6.979,6.307-13.758,12.467-24.267,9.405c-0.977-0.284-2.27,0.176-3.322,0.552c-5.132,1.831-9.673,0.504-14.315-1.935
		c-2.776-1.459-6.046-2.033-9.14-2.822C442.033,492.667,438.18,491.887,433.92,490.929z M418.23,479.701
		c6.548-5.407,8.53-12.026,8.917-19.408c0.17-3.254-1.154-4.952-4.304-5.569c-3.19-0.625-4.628,1.152-5.536,3.734
		C414.813,465.55,415.953,472.463,418.23,479.701z"/>
	<path fill-rule="evenodd" clip-rule="evenodd" d="M252,364.074c0,5.172,0,10.09,0,15.277c-26.328,0-52.402,0-78.772,0
		c0-5.043,0-9.969,0-15.277C199.257,364.074,225.315,364.074,252,364.074z"/>
	<path fill-rule="evenodd" clip-rule="evenodd" fill="#FFFFFF" d="M418.23,479.701c-2.277-7.237-3.417-14.15-0.923-21.243
		c0.908-2.582,2.346-4.359,5.536-3.734c3.149,0.617,4.474,2.315,4.304,5.569C426.761,467.674,424.778,474.293,418.23,479.701z"/>
</g>
</svg>
